<svg width="193" height="56" fill="none" xmlns="http://www.w3.org/2000/svg"><g clip-path="url(#a)" fill-rule="evenodd" clip-rule="evenodd"><path d="M45.065.782h18.43c.926 0 1.655.75 1.655 1.63v.717c0 .913-.762 1.63-1.655 1.63H47.514v7.464h7.875c3.474 0 6.187.75 8.14 2.217 1.025.782 1.819 1.76 2.315 2.934.497 1.14.761 2.412.761 3.846 0 3.031-1.059 5.346-3.176 6.943-1.026.782-2.25 1.369-3.706 1.727-1.39.359-2.978.555-4.731.555h-9.894c-.926 0-1.654-.75-1.654-1.63V2.412c-.033-.88.695-1.63 1.621-1.63ZM29.051 30.608a17.03 17.03 0 0 1-4.103-.49c-1.357-.325-2.35-.75-3.573-1.368-.43-.229-.96-.13-1.324.195l-.86.88c-.066.065-.166.163-.265.196a1.645 1.645 0 0 1-.562.195c-.298.033-.563.163-.728.392 0 0-9.629 11.245-10.49 12.256-1.223 1.434-2.778 1.695-4.135 1.238a4.72 4.72 0 0 1-1.688-1.043c-.463-.456-.86-1.043-1.058-1.662C-.2 40.06.033 38.496 1.489 37.29l12.408-10.366c.231-.195.364-.489.397-.75.033-.195.1-.358.198-.521.066-.098.133-.163.199-.26l.827-.816c.397-.39.43-.945.132-1.369-.661-1.14-1.125-2.281-1.489-3.553a15.856 15.856 0 0 1-.496-4.01c0-1.368.166-2.705.497-4.008.33-1.304.86-2.51 1.521-3.651.662-1.141 1.49-2.151 2.416-3.064.926-.913 1.985-1.663 3.143-2.314a15.352 15.352 0 0 1 3.74-1.467 16.83 16.83 0 0 1 4.102-.49c1.985 0 3.871.327 5.625.946.893.326 1.72.717 2.514 1.206a11.944 11.944 0 0 1 2.151 1.695 1.597 1.597 0 0 1 0 2.314l-.397.457c-.595.684-1.654.782-2.349.163l-.066-.065c-.96-.913-2.052-1.598-3.276-2.021-1.257-.457-2.647-.685-4.235-.685-2.15 0-4.07.489-5.79 1.434a12.022 12.022 0 0 0-2.317 1.695 10.86 10.86 0 0 0-1.753 2.25 11.55 11.55 0 0 0-1.125 2.64c-.232.912-.364 1.89-.364 2.933 0 2.054.496 3.912 1.489 5.574a10.862 10.862 0 0 0 1.753 2.25 10.036 10.036 0 0 0 2.317 1.694c1.72.978 3.64 1.435 5.79 1.435 1.555 0 2.945-.229 4.202-.685a9.686 9.686 0 0 0 3.309-2.053 1.686 1.686 0 0 1 2.349.065c.033.032.033.065.066.065l.463.521c.563.652.53 1.63-.099 2.217a12.241 12.241 0 0 1-2.15 1.695c-.795.489-1.622.88-2.515 1.206-.894.326-1.787.554-2.747.717a13.9 13.9 0 0 1-2.878.294Zm-5.823-17.602c.099-.196.198-.392.297-.555.1-.162.232-.325.331-.521a.794.794 0 0 0-.198-1.14.82.82 0 0 0-1.158.195c-.133.195-.298.423-.43.652-.133.228-.265.456-.364.684-.2.424 0 .88.396 1.076.43.195.927 0 1.125-.391Zm2.514 8.05c-.96-.586-1.754-1.368-2.283-2.314a6.29 6.29 0 0 1-.827-3.096c0-.163 0-.359.033-.522a.814.814 0 0 0-.761-.88c-.463-.032-.86.294-.893.75-.034.228-.034.424-.034.62 0 1.4.364 2.737 1.06 3.91a8.022 8.022 0 0 0 2.845 2.902.823.823 0 0 0 1.125-.293c.264-.359.132-.848-.265-1.076ZM112.63.783c1.82 0 3.441.228 4.864.652 1.522.456 2.813 1.108 3.904 2.021 1.125.945 1.986 2.054 2.581 3.357.563 1.272.827 2.706.827 4.303s-.264 3.031-.827 4.303c-.562 1.304-1.423 2.412-2.581 3.357-1.091.913-2.415 1.565-3.904 2.021-1.456.424-3.077.652-4.864.652h-.794c-.165-1.108-.066-2.477.331-4.01h.529c1.423 0 2.614-.162 3.673-.456.96-.293 1.787-.684 2.449-1.238a5.051 5.051 0 0 0 1.422-1.89c.331-.783.497-1.696.497-2.739 0-2.02-.629-3.586-1.919-4.629-.662-.554-1.489-.945-2.449-1.238-1.026-.294-2.25-.457-3.673-.457h-6.716V17.44h4.268c-.463 1.434-.695 2.803-.695 4.009h-3.607v7.4c0 .912-.761 1.63-1.654 1.63h-.761c-.926 0-1.654-.75-1.654-1.63V2.444c0-.913.761-1.63 1.654-1.63h9.099V.782ZM83.712 30.608a17.03 17.03 0 0 1-4.103-.49 15.349 15.349 0 0 1-3.74-1.466 15.877 15.877 0 0 1-3.142-2.315c-.927-.912-1.754-1.923-2.416-3.064-.662-1.14-1.191-2.346-1.522-3.65a15.856 15.856 0 0 1-.496-4.01c0-1.369.165-2.705.496-4.009.331-1.304.86-2.51 1.522-3.65.662-1.142 1.49-2.152 2.415-3.065.927-.912 1.986-1.662 3.144-2.314a15.35 15.35 0 0 1 3.739-1.467A16.83 16.83 0 0 1 83.712.62c1.422 0 2.779.163 4.102.49 1.324.325 2.548.814 3.74 1.466a15.88 15.88 0 0 1 3.143 2.314c.926.913 1.753 1.923 2.415 3.064 1.357 2.282 2.018 4.824 2.018 7.628 0 2.803-.661 5.346-2.018 7.627-.662 1.141-1.489 2.152-2.415 3.064-.927.913-1.986 1.663-3.144 2.315a15.35 15.35 0 0 1-3.739 1.466c-1.323.392-2.68.555-4.102.555Zm0-4.01c2.15 0 4.07-.489 5.79-1.434a12.026 12.026 0 0 0 2.316-1.695 11.58 11.58 0 0 0 1.754-2.217c.496-.847.86-1.727 1.125-2.64.231-.912.364-1.923.364-2.966 0-1.043-.133-2.054-.364-2.966-.232-.913-.629-1.793-1.125-2.64a10.65 10.65 0 0 0-1.754-2.217 10.279 10.279 0 0 0-2.316-1.695 10.69 10.69 0 0 0-2.713-1.076 13.26 13.26 0 0 0-3.077-.358c-2.151 0-4.07.489-5.79 1.434a12.018 12.018 0 0 0-2.317 1.695 11.574 11.574 0 0 0-1.754 2.216 11.55 11.55 0 0 0-1.124 2.64 12.152 12.152 0 0 0-.364 2.967c0 2.086.496 3.944 1.489 5.606a10.65 10.65 0 0 0 1.753 2.217 10.279 10.279 0 0 0 2.316 1.695c1.72.945 3.673 1.434 5.79 1.434ZM55.09 26.5c1.356 0 2.548-.13 3.507-.358.894-.228 1.654-.554 2.217-1.01.53-.392.927-.913 1.191-1.5.298-.652.43-1.402.43-2.314 0-.88-.132-1.663-.43-2.282-.264-.587-.629-1.076-1.158-1.434-.562-.424-1.29-.75-2.217-.978-.992-.228-2.184-.359-3.573-.359h-7.61V26.5h7.643Z" fill="url(#b)"/><path d="M155.545.62c-.827 1.434-18.86 35.333-5.791 26.076.166-.098.298-.196.398-.293l-.034-.326c-.132-1.206-.198-2.347-.132-3.39a14.17 14.17 0 0 1 .463-2.836c.265-.88.629-1.63 1.059-2.25a7.84 7.84 0 0 1 3.143-2.672c1.324-.62 2.747-.848 4.037-.717a7.076 7.076 0 0 1 1.688.391 5.45 5.45 0 0 1 1.422.782 4.28 4.28 0 0 1 1.092 1.206c.265.457.463.946.563 1.5.231 1.238-.033 2.77-.96 4.53-.794 1.533-2.117 3.26-4.07 5.118-.066.065-.165.098-.231.065l-.695-.26c-.033 0-.033-.033-.066-.033-.099-.065-.099-.196 0-.293a40.95 40.95 0 0 0 1.125-1.37c.364-.456.662-.88.926-1.303.596-.913 1.059-1.695 1.357-2.445a7.386 7.386 0 0 0 .562-2.053c.033-.555 0-1.011-.165-1.435a2.298 2.298 0 0 0-.728-1.01.455.455 0 0 1-.132-.098c-.067-.033-.1-.065-.166-.098-.43-.26-.86-.423-1.323-.521a5.24 5.24 0 0 0-1.423-.098 5.658 5.658 0 0 0-1.621.424 5.317 5.317 0 0 0-1.489.978 7.402 7.402 0 0 0-1.291 1.532 8.896 8.896 0 0 0-.926 1.955c-.364 1.076-.563 2.315-.563 3.684 0 1.27.166 2.673.53 4.205.033 0 .364-.098.43-.098l.265-.065c.066 0 .132-.033.198-.033l.166-.717c.066-.26.099-.49.165-.717.066-.261.099-.49.165-.717.033-.229.1-.457.133-.685.033-.163.066-.293.066-.424.033-.13.066-.293.066-.423.033-.13.033-.261.066-.392.033-.13.033-.26.033-.358l-.198-.098-.199-.098c-.066-.032-.132-.097-.165-.13-.066-.033-.099-.098-.166-.13-.066-.066-.165-.13-.231-.229-.066-.065-.133-.163-.199-.228-.066-.098-.099-.163-.165-.26-.033-.098-.099-.196-.133-.261-.033-.098-.066-.163-.066-.261-.033-.065-.033-.163-.033-.228V22.72c0-.098 0-.164.033-.229v-.098c0-.032 0-.065.033-.097 0-.033.033-.066.033-.066 0-.032.034-.065.034-.097 0-.033.033-.066.033-.066.033-.032.033-.065.066-.065l.066-.065c.033 0 .033-.033.066-.033h.033c.033-.032.066-.032.1-.032.033 0 .066-.033.099-.033s.066 0 .099-.032h.232c.033 0 .066 0 .066.032.033 0 .066.033.066.033a.783.783 0 0 1 .298.195c.099.066.165.163.265.261.066.098.165.196.231.326s.132.228.166.391c.033.098.066.228.099.326.033.13.066.229.066.359.033.13.033.228.033.358V24.675c.066 0 .099.033.166.033.066 0 .099.032.165.032s.099 0 .165.033h.96c.033-.098.099-.228.132-.326s.1-.196.133-.293c.033-.098.099-.196.132-.261.066-.098.099-.196.132-.26.067-.099.133-.23.199-.327.066-.098.132-.196.231-.293.067-.098.133-.163.232-.261.066-.098.166-.163.232-.228.099-.065.165-.13.264-.196.1-.065.166-.13.265-.163.066-.032.166-.065.232-.098.099-.032.165-.065.231-.065H158.688c.033 0 .099.033.132.066.034.032.1.032.133.065a.256.256 0 0 1 .132.13c.033.033.066.098.133.163.033.033.066.065.066.13.033.033.033.098.066.13 0 .033.033.099.033.131v.391c0 .033 0 .098-.033.13 0 .033-.033.098-.033.131-.033.065-.066.163-.099.228-.034.066-.067.163-.133.229-.033.065-.099.162-.132.228-.066.065-.099.13-.166.228l-.198.195-.199.196c-.066.065-.132.098-.198.163a.537.537 0 0 1-.232.13c-.066.033-.165.098-.264.13-.1.033-.199.098-.265.131l-.298.098a.98.98 0 0 1-.298.065l-.132.033h-.033c-.033 0-.099.032-.133.032l-.099.261-.099.293c-.066.163-.132.359-.199.554-.066.196-.132.36-.198.555l-.132.39-.133.425c0 .032-.033.065-.033.065-.066.098-.198.13-.298.032l-.331-.26c-.066-.033-.099-.13-.066-.229l.166-.488c.066-.196.099-.36.165-.522.066-.196.132-.391.199-.554.066-.163.132-.359.198-.522h-.198c-.1 0-.166 0-.265-.032-.099 0-.165-.033-.265-.033-.099 0-.165-.032-.264-.032-.1-.033-.166-.033-.265-.066 0 .13-.033.261-.033.424-.033.163-.033.293-.066.456-.034.163-.034.294-.067.457l-.099.489c-.033.13-.066.326-.099.521-.033.196-.066.359-.099.522a3.38 3.38 0 0 1-.133.554l-.132.587c.198-.033.397-.066.595-.13.166-.033.398-.066.596-.099.232-.032.43-.065.629-.097.198-.033.397-.066.661-.098.199-.033.431-.065.695-.098l.695-.098h.033l1.191-.163c.067 0 .166.033.199.098l.364.587c.033.032.033.065.033.098 0 .097-.099.228-.199.228l-1.091.163-.662.098c-.199.032-.397.065-.629.097-.198.033-.397.066-.629.098-.231.033-.463.065-.628.098a5.447 5.447 0 0 0-.629.13c-.198.033-.397.066-.595.13-.761.164-1.423.327-2.085.49-.662.163-1.29.358-1.886.554-.099.032-.165 0-.232-.066l-.43-.619c0-.032-.033-.032-.033-.065-.033-.098.066-.228.166-.26l.43-.131h.033l.463-.13c-.198-.783-.364-1.5-.496-2.217-.166.098-.331.228-.53.358-10.786 6.226-5.161-8.507-3.639-13.005-2.78 3.716-10.489 15.45-14.956 15.45-2.448 0-3.639-1.173-3.639-3.488 0-4.693 4.896-13.005 7.146-17.471.795-1.695 1.192-3.097 1.192-4.205 0-2.216-1.423-3.325-4.236-3.325-3.044 0-5.79.815-8.172 2.184a8.601 8.601 0 0 0-.728-.815c2.878-1.662 6.121-2.705 9.628-2.705 3.739 0 5.592 1.5 5.592 4.498 0 1.467-.529 3.292-1.588 5.509-1.919 3.65-6.849 12.81-6.849 16.591 0 1.076.397 1.63 1.191 1.63 6.816 0 17.669-20.731 21.474-27.609.827-1.304 4.136-2.249 3.408-.978Zm5.195 33.573c0-.554-.397-.912-1.026-1.108-.563-.163-1.324-.228-2.118-.228-.827 0-1.72.098-2.448.195-.761.098-1.39.229-1.721.261-1.125.228-2.217.49-3.275.848-1.059.326-2.118.75-3.144 1.206a37.864 37.864 0 0 0-3.044 1.532 40.547 40.547 0 0 0-3.011 1.792 34.418 34.418 0 0 0-3.805 2.771c-1.092.945-1.985 1.89-2.713 2.869a11.083 11.083 0 0 0-1.621 2.9 8.512 8.512 0 0 0-.53 2.967c0 .424.033.847.099 1.239.067.39.199.782.364 1.108.166.358.364.684.596.978.232.293.496.586.827.847.298.26.629.49.993.685.331.195.695.358 1.092.489.397.13.794.228 1.191.293.43.065.86.098 1.323.098 1.158 0 2.317-.196 3.442-.554a12.793 12.793 0 0 0 3.341-1.663 20.655 20.655 0 0 0 3.243-2.77c1.059-1.109 2.084-2.38 3.11-3.88 0 0 0-.032.033-.032.563-.782 1.059-1.63 1.555-2.543.497-.945.993-1.955 1.423-3.03.463-1.11.894-2.25 1.291-3.521a74.722 74.722 0 0 0 1.125-3.977c.198-.033.397-.033.562-.033h.563c.198 0 .397 0 .562.033.165 0 .331.033.463.065.133.033.265.065.364.098.099.033.166.065.232.098h.033c.198.13.265.163.298.195a.215.215 0 0 0 .165.066c.066.032.166-.066.166-.294Zm-7.313.13a.892.892 0 0 1 .033.294c0 .62-.529 1.14-1.158 1.14-.496 0-.926-.325-1.092-.782l-.066.033-.099.033c-.364.13-.728.26-1.125.424l-1.191.488c-.43.163-.827.359-1.291.587-.43.196-.86.424-1.323.652-1.721.88-3.276 1.728-4.599 2.575a24.85 24.85 0 0 0-3.375 2.575c-1.423 1.37-2.515 2.706-3.21 4.042-.695 1.337-1.059 2.673-1.059 3.977 0 .358.034.717.1 1.043.066.326.132.652.264.945.133.294.265.554.431.815.165.26.364.489.628.717.232.228.497.424.761.587.265.163.563.293.86.424.298.097.629.195.96.26.331.066.695.098 1.059.098.595 0 1.191-.065 1.753-.195a9.07 9.07 0 0 0 1.754-.554 10.987 10.987 0 0 0 1.721-.913 14.549 14.549 0 0 0 1.72-1.271c.463-.392.894-.783 1.324-1.24.43-.423.86-.912 1.257-1.4.397-.49.794-1.011 1.158-1.565.364-.554.728-1.109 1.092-1.728.496-.847.96-1.727 1.423-2.673.43-.945.827-1.923 1.191-2.966.364-1.043.695-2.119.993-3.26.297-1.14.562-2.314.794-3.553-.133.033-.265.033-.397.066-.133.032-.265.065-.397.065-.1.032-.232.065-.364.065a5.346 5.346 0 0 0-.364.098h-.033l-.133.098Zm-39.341-19.492-.198.49-.1.227-.099.261-.066.228-.033.033c-.066.228-.166.456-.232.684l-.033.066-.099.39v.066l-.066.228v.033l-.1.39v.033l-.033.229-.033.228-.033.195v.098l-.033.163-.033.228-.066.13v.131l-.033.228v1.434c0 .066 0 .13.033.196v.098l.033.163v.065c0 .065.033.13.033.195l.033.098c0 .066.033.098.033.163l.033.098c0 .065.033.098.066.13l.033.066c.034.065.067.13.067.195l.033.065c.033.066.033.098.066.13l.033.033c.033.066.066.098.099.163l.033.066a.434.434 0 0 0 .1.13c.033.065.066.098.132.163l.033.032.132.13h.033c.034.034.1.066.133.131l.033.033c.066.032.099.065.165.098l.033.032c.067.033.1.066.166.098h.033a.562.562 0 0 0 .165.065l.067.033c.066.032.132.032.198.065s.132.033.199.065h.033c.066 0 .132.033.231.033h.033c.067 0 .133 0 .232.032H116.171c.099 0 .165 0 .264-.032h.066c.1 0 .199-.033.298-.033.596-.098 1.026-.163 1.291-.163.297 0 .463.098.463.294 0 .456-.53.847-1.588 1.108-.133.032-.265.065-.43.098l-.1.032a1.675 1.675 0 0 1-.397.066c-.132.032-.264.032-.397.065h-.066c-.132 0-.232.032-.364.032-.132 0-.232 0-.364.033h-.397c-.099 0-.199 0-.298-.033h-.066c-.099 0-.198-.032-.265-.032h-.033a.628.628 0 0 1-.264-.066l-.067-.032c-.066-.033-.165-.033-.231-.065h-.033c-.1-.033-.166-.066-.265-.098l-.066-.033-.199-.098-.033-.032a.691.691 0 0 1-.198-.13l-.067-.033c-.066-.033-.099-.065-.165-.13l-.033-.033a.394.394 0 0 1-.165-.163l-.067-.065-.132-.13-.033-.033a.574.574 0 0 1-.132-.163l-.067-.065c-.033-.066-.066-.098-.099-.163l-.033-.066a.681.681 0 0 0-.132-.195l-.033-.065c-.033-.066-.067-.098-.067-.163l-.033-.066a1.58 1.58 0 0 1-.099-.228l-.033-.098c-.033-.065-.033-.097-.066-.162l-.033-.098c-.033-.065-.033-.163-.066-.228l-.034-.098c0-.065-.033-.13-.033-.163l-.033-.098c0-.065-.033-.163-.033-.26V20.111c0-.098.033-.163.033-.261l.033-.163.033-.163.034-.163c.033-.098.033-.196.066-.326l.033-.13.033-.229.033-.13c.033-.098.066-.228.066-.326l.033-.13.066-.261.034-.13c.033-.098.066-.229.099-.326l.033-.13.099-.261.033-.13c.033-.131.099-.262.133-.36l.033-.065c.033-.097.066-.228.132-.326l.033-.097c.066-.13.099-.261.166-.391l.033-.066c.033-.098.099-.228.132-.326l.033-.098c.066-.13.099-.228.165-.358 1.39-2.901 3.574-5.933 6.386-8.442l.133.097c.231.196.463.424.661.652a23.19 23.19 0 0 0-5.459 7.758Zm39.804 9.518V23.665c0-.098 0-.196-.033-.294a.94.94 0 0 0-.066-.293c-.033-.098-.033-.196-.066-.26-.033-.066-.033-.099-.066-.131-.033-.033-.033-.065-.066-.098s-.033-.065-.067-.098l-.033-.032h-.165s-.033 0-.033.032h-.033l-.033.033-.033.032s-.033.033-.033.066c0 .032-.034.032-.034.065 0 0-.033.032-.033.065s0 .033-.033.065l-.033.065v.391c0 .066 0 .098.033.163 0 .066.033.098.066.163 0 .033.034.066.067.13.033.034.033.066.066.099.033.032.066.065.066.098l.099.097.099.098c.034.033.067.065.133.065.033.033.066.033.132.065 0 .033.033.066.099.098Zm3.342-.032c.033 0 .066-.033.1-.066.033-.032.066-.032.099-.065.033 0 .066-.032.099-.065.066-.033.132-.098.199-.13a.872.872 0 0 0 .198-.163c.066-.066.132-.098.199-.163.066-.066.132-.13.165-.196.066-.065.099-.13.166-.196.033-.065.099-.13.132-.195l.099-.196a.46.46 0 0 0 .066-.195c0-.033.033-.065.033-.13v-.033a.251.251 0 0 0-.132.065c-.066.033-.099.065-.165.098 0 0-.033 0-.033.032-.067.033-.1.066-.166.098a.395.395 0 0 0-.165.163l-.232.228c-.066.066-.132.163-.232.261-.066.098-.132.163-.198.26l-.199.294-.033.065c-.033.066-.099.163-.132.229.066.032.099.032.132 0Zm8.636-9.812-1.224 1.206c-.099.098-.232.098-.298 0l-.529-.587c-.066-.065-.066-.195.033-.293l1.224-1.206c.099-.098.232-.098.298 0l.529.587c.066.065.066.195-.033.293Zm-10.886-3.162c0-.065-.066-.13-.132-.13l-.43-.163c-.099-.033-.232.033-.298.13a.098.098 0 0 0 0 .13l.265 1.207c0 .065.066.13.132.13l.43.163c.1.033.232-.032.298-.13a.098.098 0 0 0 0-.13l-.265-1.207Zm1.919 20.308c.1-.033.199-.13.166-.229 0-.032-.033-.065-.033-.097l-.43-.62a.305.305 0 0 0-.232-.097c-.331.065-.629.13-.926.163-.331.065-.695.13-1.092.195l-.53.098-.529.098a6.513 6.513 0 0 0-.496.098c-.166.032-.298.065-.497.097-.595.13-1.125.261-1.654.424-.496.13-1.026.294-1.555.424-.1.032-.166.163-.133.26 0 .033.033.033.033.066l.464.62c.066.064.165.097.231.064.497-.13 1.026-.293 1.589-.456a22.854 22.854 0 0 1 1.753-.424c.133-.032.298-.065.496-.098a6.71 6.71 0 0 0 .497-.097c.198-.033.364-.066.529-.098l.53-.098.463-.098.562-.098.794-.097Zm4.467-21.97c.033-.098 0-.163-.066-.196l-.562-.39a.218.218 0 0 0-.298.064c-.033.033-.033.066-.033.098l-.761 2.966c-.033.098 0 .163.066.196l.562.391c.1.065.232.033.298-.065.066-.098.695-2.705.794-3.064ZM193 23.013c0-.228-.529.032-.629.13-.099.098-.132.13-1.092 1.337-1.158 1.466-2.183 2.575-3.077 3.357-1.356 1.206-2.581 1.793-3.639 1.793-5.658 0 2.183-11.67 2.183-11.637 0-1.076-1.323-1.956-2.216-.945-1.324 2.314-5.592 10.398-7.776 10.398-3.309 0 1.82-8.084 1.82-8.214 0-.294-.298-.457-.86-.457-2.019 0-4.004 4.498-4.037 7.563-1.588 1.206-3.706 2.444-5.658 2.444-2.746 0-2.217-2.933-1.721-4.661 5.063-.945 10.257-8.507 5.294-9.094-6.187-.717-11.911 14.961-4.235 14.961 2.283 0 4.599-1.238 6.419-2.575.199 1.076.761 1.793 1.787 1.793 2.283 0 4.764-4.042 5.923-5.737-.828 2.575-2.019 7.465 2.349 7.465 1.588 0 3.308-.815 5.128-2.478 1.423-1.27 2.647-2.77 3.706-4.498.232-.358.331-.684.331-.945Zm-3.375-12.42c-2.448 3.554-10.389 5.966-11.018.098-.132-1.173.893-1.727 1.257-.423 1.258 4.856 6.485 2.738 9.066.163.463-.424 1.291-.685.695.163Zm-17.933 7.074c0 1.956-3.243 4.629-4.964 5.346.364-1.304 2.978-6.03 4.269-6.03.463 0 .695.228.695.684Zm-55.323 7.725-.397.066c.132 0 .265-.033.397-.066Z" fill="#000"/></g><defs><linearGradient id="b" x1="62.405" y1="30.482" x2="62.405" y2="4.498" gradientUnits="userSpaceOnUse"><stop stop-color="#9172B1"/><stop offset="1" stop-color="#8292CA"/></linearGradient><clipPath id="a"><path fill="#fff" d="M0 0h193v56H0z"/></clipPath></defs></svg>