<svg width="212" height="62" fill="none" xmlns="http://www.w3.org/2000/svg"><g clip-path="url(#a)" fill-rule="evenodd" clip-rule="evenodd" fill="#fff"><path d="M49.502.866h20.244c1.018 0 1.817.83 1.817 1.804v.794c0 1.01-.836 1.805-1.817 1.805H52.19v8.264h8.65c3.817 0 6.797.83 8.941 2.454 1.127.866 2 1.949 2.544 3.248.546 1.263.836 2.67.836 4.259 0 3.356-1.163 5.918-3.489 7.686-1.127.866-2.471 1.516-4.07 1.913-1.527.397-3.271.613-5.198.613H49.538a1.816 1.816 0 0 1-1.817-1.804V2.67c-.036-.974.763-1.804 1.78-1.804ZM31.91 33.886c-1.563 0-3.053-.18-4.507-.54-1.49-.361-2.58-.83-3.925-1.516-.473-.253-1.054-.144-1.454.216l-.945.975c-.073.072-.182.18-.29.216-.182.109-.4.18-.619.217-.327.036-.617.18-.8.433 0 0-10.576 12.45-11.52 13.57-1.345 1.587-3.053 1.876-4.544 1.37a5.177 5.177 0 0 1-1.853-1.154c-.51-.506-.945-1.155-1.163-1.84-.51-1.48-.255-3.213 1.345-4.548L15.264 29.81c.254-.217.4-.541.436-.83.036-.217.109-.397.218-.578.073-.108.145-.18.218-.288l.909-.902a1.156 1.156 0 0 0 .145-1.516c-.727-1.263-1.236-2.526-1.635-3.934a17.69 17.69 0 0 1-.546-4.439c0-1.515.182-2.995.546-4.438.363-1.444.945-2.78 1.671-4.042.727-1.264 1.636-2.382 2.654-3.393 1.017-1.01 2.18-1.84 3.452-2.562a16.784 16.784 0 0 1 4.107-1.624 18.349 18.349 0 0 1 4.507-.541c2.18 0 4.253.36 6.179 1.046.981.361 1.89.794 2.762 1.335a13.138 13.138 0 0 1 2.363 1.877c.726.722.726 1.84 0 2.562l-.437.506c-.654.757-1.817.866-2.58.18l-.073-.072c-1.054-1.01-2.253-1.768-3.598-2.238-1.381-.505-2.908-.757-4.652-.757-2.363 0-4.47.54-6.36 1.587a13.21 13.21 0 0 0-2.545 1.877 12.01 12.01 0 0 0-1.926 2.49 12.846 12.846 0 0 0-1.236 2.923c-.254 1.01-.4 2.093-.4 3.248 0 2.274.546 4.33 1.636 6.171.545.939 1.2 1.769 1.926 2.49.727.722 1.6 1.372 2.544 1.877 1.89 1.083 3.998 1.588 6.36 1.588 1.709 0 3.235-.253 4.617-.758a10.624 10.624 0 0 0 3.634-2.273 1.842 1.842 0 0 1 2.58.072c.037.036.037.072.073.072l.51.577c.617.722.58 1.805-.11 2.454-.69.686-1.49 1.336-2.362 1.877-.873.541-1.781.974-2.762 1.335-.982.361-1.963.614-3.017.794a15.149 15.149 0 0 1-3.162.325ZM25.514 14.4c.11-.216.218-.433.327-.613.11-.18.255-.361.364-.578a.883.883 0 0 0-.218-1.263.897.897 0 0 0-1.272.217c-.146.216-.328.469-.473.721-.145.253-.29.506-.4.758-.218.47 0 .975.436 1.191a.95.95 0 0 0 1.236-.433Zm2.762 8.914c-1.054-.65-1.926-1.516-2.508-2.562a7.007 7.007 0 0 1-.908-3.429c0-.18 0-.397.036-.577a.899.899 0 0 0-.836-.975.901.901 0 0 0-.981.83c-.036.253-.036.47-.036.686 0 1.552.4 3.032 1.163 4.33a8.849 8.849 0 0 0 3.125 3.213.9.9 0 0 0 1.236-.325c.29-.397.145-.938-.29-1.191ZM123.718.866c1.999 0 3.78.253 5.343.722 1.672.505 3.089 1.227 4.289 2.237 1.235 1.047 2.18 2.274 2.834 3.717.618 1.408.909 2.996.909 4.764 0 1.768-.291 3.356-.909 4.764-.617 1.443-1.562 2.67-2.834 3.717-1.2 1.01-2.654 1.732-4.289 2.237-1.599.47-3.38.722-5.343.722h-.872c-.182-1.227-.073-2.743.363-4.439h.582c1.563 0 2.871-.18 4.034-.505 1.054-.325 1.963-.758 2.69-1.371a5.58 5.58 0 0 0 1.562-2.094c.364-.866.546-1.876.546-3.031 0-2.237-.691-3.97-2.108-5.125-.727-.613-1.636-1.046-2.69-1.37-1.127-.326-2.471-.506-4.034-.506h-7.378v14.002h4.688c-.509 1.588-.763 3.104-.763 4.44h-3.962v8.191c0 1.01-.835 1.805-1.817 1.805h-.836a1.816 1.816 0 0 1-1.817-1.805V2.707c0-1.011.836-1.805 1.817-1.805h9.995V.866Zm-31.765 33.02c-1.563 0-3.053-.18-4.507-.54a16.783 16.783 0 0 1-4.107-1.624 17.45 17.45 0 0 1-3.453-2.563c-1.017-1.01-1.926-2.129-2.653-3.392-.727-1.263-1.309-2.598-1.672-4.042a17.685 17.685 0 0 1-.545-4.439c0-1.516.182-2.995.545-4.439.363-1.443.945-2.778 1.672-4.042.727-1.263 1.635-2.381 2.653-3.392 1.018-1.01 2.18-1.84 3.453-2.562a16.784 16.784 0 0 1 4.107-1.624 18.348 18.348 0 0 1 4.507-.541c1.563 0 3.053.18 4.506.54 1.454.362 2.799.903 4.107 1.625a17.433 17.433 0 0 1 3.453 2.562c1.018 1.01 1.926 2.13 2.653 3.392 1.49 2.527 2.217 5.341 2.217 8.445s-.727 5.919-2.217 8.445c-.727 1.263-1.635 2.382-2.653 3.392-1.017 1.01-2.181 1.84-3.453 2.563a16.774 16.774 0 0 1-4.107 1.623c-1.453.433-2.944.614-4.506.614Zm0-4.438c2.362 0 4.47-.541 6.36-1.588a13.206 13.206 0 0 0 2.544-1.876 12.788 12.788 0 0 0 1.926-2.455c.546-.938.945-1.912 1.236-2.923.255-1.01.4-2.129.4-3.284 0-1.154-.145-2.273-.4-3.284-.254-1.01-.69-1.985-1.236-2.923-.545-.938-1.199-1.732-1.926-2.454-.727-.722-1.563-1.335-2.544-1.876a11.69 11.69 0 0 0-2.98-1.191 14.455 14.455 0 0 0-3.38-.397c-2.363 0-4.47.54-6.36 1.588a13.21 13.21 0 0 0-2.545 1.876 12.802 12.802 0 0 0-1.926 2.454 12.842 12.842 0 0 0-1.236 2.923c-.254 1.01-.4 2.13-.4 3.284 0 2.31.545 4.367 1.636 6.207.545.939 1.2 1.733 1.926 2.455.727.721 1.563 1.335 2.544 1.876 1.89 1.047 4.035 1.588 6.36 1.588Zm-31.439-.108c1.49 0 2.799-.145 3.853-.397.981-.253 1.817-.614 2.435-1.119a4.178 4.178 0 0 0 1.308-1.66c.328-.722.473-1.552.473-2.562 0-.975-.145-1.84-.473-2.526-.29-.65-.69-1.191-1.272-1.588-.618-.47-1.417-.83-2.435-1.083-1.09-.253-2.399-.397-3.925-.397h-8.36V29.34h8.396Z"/><path d="M170.858.686c-.909 1.588-20.717 39.12-6.361 28.87.182-.108.327-.216.436-.324l-.036-.361c-.145-1.335-.218-2.599-.145-3.753a15.75 15.75 0 0 1 .508-3.14c.291-.975.691-1.805 1.163-2.49.945-1.372 2.145-2.346 3.453-2.96 1.454-.685 3.017-.938 4.434-.793a7.718 7.718 0 0 1 1.854.433 5.99 5.99 0 0 1 1.563.866c.472.36.872.794 1.199 1.335.291.505.509 1.047.618 1.66.254 1.371-.036 3.068-1.054 5.016-.872 1.696-2.326 3.61-4.47 5.666-.073.072-.182.109-.255.072l-.763-.288c-.036 0-.036-.036-.073-.036-.109-.072-.109-.217 0-.325.436-.505.836-1.01 1.236-1.516.4-.505.727-.974 1.018-1.443.654-1.01 1.163-1.877 1.49-2.707.363-.866.545-1.624.618-2.274.036-.613 0-1.118-.182-1.587-.182-.47-.436-.83-.8-1.12a.502.502 0 0 1-.145-.107c-.073-.037-.109-.073-.182-.109a4.532 4.532 0 0 0-1.454-.577 5.7 5.7 0 0 0-1.562-.108c-.618.072-1.2.216-1.781.469a5.848 5.848 0 0 0-1.636 1.082 8.172 8.172 0 0 0-1.417 1.697c-.4.65-.764 1.37-1.018 2.165-.4 1.19-.618 2.562-.618 4.078 0 1.407.182 2.96.582 4.655.036 0 .399-.108.472-.108l.291-.072c.073 0 .145-.036.218-.036l.182-.794c.072-.289.109-.542.181-.794.073-.289.109-.541.182-.794.036-.253.109-.505.146-.758.036-.18.072-.325.072-.47.037-.143.073-.324.073-.468.036-.145.036-.289.073-.433.036-.145.036-.29.036-.397l-.218-.109-.218-.108a.78.78 0 0 1-.182-.144c-.073-.036-.109-.108-.182-.145-.072-.072-.181-.144-.254-.252-.073-.072-.145-.18-.218-.253-.073-.108-.109-.18-.182-.289-.036-.108-.109-.216-.145-.288-.037-.108-.073-.18-.073-.289-.036-.072-.036-.18-.036-.253V25.154c0-.109 0-.18.036-.253V24.793c0-.036 0-.072.036-.108 0-.037.037-.073.037-.073 0-.036.036-.072.036-.108 0-.036.036-.072.036-.072.037-.036.037-.072.073-.072l.073-.072c.036 0 .036-.037.073-.037h.036c.036-.036.073-.036.109-.036.036 0 .073-.036.109-.036.036 0 .073 0 .109-.036h.254c.037 0 .073 0 .073.036.036 0 .073.036.073.036a.858.858 0 0 1 .327.217c.109.072.182.18.291.289.072.108.181.216.254.36.073.145.145.253.182.434.036.108.072.252.109.36.036.145.072.253.072.397.037.145.037.253.037.397V27.32c.073 0 .109.036.182.036.072 0 .109.036.181.036a.33.33 0 0 1 .182.036h1.054c.036-.108.109-.252.145-.36.037-.109.109-.217.146-.326.036-.108.109-.216.145-.288.073-.108.109-.217.146-.289.072-.108.145-.253.218-.36a1.95 1.95 0 0 1 .254-.326 1.83 1.83 0 0 1 .254-.288c.073-.109.182-.18.255-.253.109-.072.182-.144.291-.216.109-.073.181-.145.29-.18.073-.037.182-.073.255-.11.109-.035.182-.071.254-.071H174.31c.037 0 .109.036.146.072.036.036.109.036.145.072a.28.28 0 0 1 .145.144c.037.037.073.109.146.18.036.037.073.073.073.145.036.036.036.108.072.145 0 .036.037.108.037.144V25.695c0 .036 0 .108-.037.144 0 .036-.036.109-.036.145-.036.072-.073.18-.109.252-.037.072-.073.18-.146.253-.036.072-.109.18-.145.252-.073.073-.109.145-.182.253l-.218.217-.218.216c-.072.072-.145.108-.218.18a.588.588 0 0 1-.254.145c-.073.036-.182.108-.291.144-.109.036-.218.109-.291.145l-.327.108c-.109.036-.218.072-.327.072l-.145.036h-.037c-.036 0-.109.036-.145.036l-.109.289-.109.325c-.073.18-.146.397-.218.613-.073.217-.146.397-.218.614l-.146.433-.145.47c0 .035-.036.071-.036.071-.073.108-.219.145-.328.036l-.363-.288c-.073-.037-.109-.145-.073-.253l.182-.541c.073-.217.109-.397.182-.578.072-.216.145-.433.218-.613.073-.18.145-.397.218-.578h-.218c-.109 0-.182 0-.291-.036-.109 0-.182-.036-.291-.036-.109 0-.181-.036-.29-.036-.109-.036-.182-.036-.291-.072 0 .144-.037.289-.037.469-.036.18-.036.325-.072.505-.037.18-.037.325-.073.506l-.109.54a8.53 8.53 0 0 0-.109.578c-.036.217-.073.397-.109.578a3.79 3.79 0 0 1-.145.613l-.146.65c.218-.036.436-.072.654-.145.182-.036.437-.072.655-.108.254-.036.472-.072.69-.108.218-.036.436-.072.727-.108.218-.036.473-.073.763-.109l.764-.108h.036l1.308-.18c.073 0 .182.036.218.108l.4.65c.037.036.037.072.037.108 0 .108-.109.252-.219.252l-1.199.18-.727.11c-.218.035-.436.071-.69.107-.218.036-.437.072-.691.109-.254.036-.509.072-.69.108a5.908 5.908 0 0 0-.691.144c-.218.036-.436.072-.654.145-.836.18-1.563.36-2.29.54a28.32 28.32 0 0 0-2.072.614c-.109.037-.181 0-.254-.072l-.473-.685c0-.036-.036-.036-.036-.073-.036-.108.073-.252.182-.288l.472-.145h.037l.509-.144c-.219-.866-.4-1.66-.546-2.454-.181.108-.363.253-.581.397-11.849 6.893-5.67-9.42-3.998-14.4-3.053 4.115-11.521 17.107-16.428 17.107-2.69 0-3.998-1.3-3.998-3.862 0-5.197 5.379-14.4 7.851-19.343.872-1.877 1.308-3.429 1.308-4.656 0-2.454-1.563-3.68-4.652-3.68a17.73 17.73 0 0 0-8.977 2.417 9.535 9.535 0 0 0-.8-.902c3.162-1.84 6.724-2.995 10.576-2.995 4.107 0 6.143 1.66 6.143 4.98 0 1.624-.582 3.645-1.745 6.099-2.108 4.042-7.523 14.183-7.523 18.369 0 1.19.436 1.804 1.308 1.804 7.487 0 19.408-22.952 23.588-30.567.909-1.443 4.543-2.49 3.744-1.082Zm5.706 37.17c0-.613-.436-1.01-1.127-1.226-.618-.18-1.454-.253-2.326-.253-.909 0-1.89.108-2.69.217-.836.108-1.526.252-1.89.288-1.235.253-2.435.542-3.598.939-1.163.36-2.326.83-3.452 1.335a41.375 41.375 0 0 0-3.344 1.696 44.557 44.557 0 0 0-3.308 1.985 37.808 37.808 0 0 0-4.179 3.067c-1.2 1.047-2.181 2.094-2.981 3.176a12.291 12.291 0 0 0-1.78 3.212 9.485 9.485 0 0 0-.582 3.284c0 .47.036.938.109 1.372.073.433.218.866.4 1.227.182.397.4.757.654 1.082.254.325.545.65.909.939.327.288.69.54 1.09.757.363.217.763.397 1.199.542.437.144.873.252 1.309.325.472.072.945.108 1.454.108 1.272 0 2.544-.217 3.78-.614 1.235-.397 2.471-1.01 3.67-1.84 1.2-.83 2.399-1.84 3.562-3.068 1.163-1.227 2.29-2.634 3.417-4.294 0 0 0-.036.036-.036.618-.867 1.163-1.805 1.708-2.815a36.204 36.204 0 0 0 1.563-3.357 44.01 44.01 0 0 0 1.417-3.897c.437-1.371.836-2.851 1.236-4.403.218-.036.436-.036.618-.036h.618c.218 0 .436 0 .618.036.181 0 .363.036.509.072.145.036.29.072.399.109.109.036.182.072.255.108h.036c.218.144.291.18.327.216.073.073.146.073.182.073.073.036.182-.073.182-.325Zm-8.033.145c.037.108.037.217.037.325 0 .686-.582 1.263-1.272 1.263a1.29 1.29 0 0 1-1.2-.866l-.072.036-.109.036c-.4.144-.8.289-1.236.47l-1.309.54c-.472.181-.908.398-1.417.65-.472.217-.945.47-1.454.722-1.89.974-3.598 1.913-5.052 2.85a27.392 27.392 0 0 0-3.707 2.852c-1.563 1.516-2.762 2.995-3.525 4.475-.764 1.48-1.163 2.96-1.163 4.403 0 .397.036.794.109 1.154.072.361.145.722.29 1.047.146.325.291.614.473.902.182.289.4.542.69.794.255.253.546.47.836.65.291.18.618.325.945.469.327.108.691.216 1.054.289.364.072.764.108 1.163.108.655 0 1.309-.072 1.927-.217a9.929 9.929 0 0 0 1.926-.613 12.04 12.04 0 0 0 1.89-1.01 16.003 16.003 0 0 0 1.89-1.408c.509-.433.981-.866 1.454-1.371.472-.47.945-1.01 1.381-1.552.436-.541.872-1.119 1.272-1.732.4-.614.799-1.228 1.199-1.913a45.304 45.304 0 0 0 1.563-2.96c.472-1.046.909-2.129 1.308-3.283.4-1.155.764-2.346 1.091-3.61a57.15 57.15 0 0 0 .872-3.933c-.145.036-.291.036-.436.072a1.834 1.834 0 0 1-.436.072 1.318 1.318 0 0 1-.4.073c-.145.036-.291.072-.4.108h-.036l-.146.108Zm-43.214-21.58-.218.54-.109.253-.109.289-.073.253-.036.036c-.073.252-.182.505-.254.757l-.037.073-.109.433v.072l-.072.253v.036l-.109.433v.036l-.037.252-.036.253-.036.216v.109l-.037.18-.036.253-.073.144v.144l-.036.253v1.588c0 .072 0 .144.036.217v.108l.037.18v.073c0 .072.036.144.036.216l.036.108c0 .072.037.109.037.18l.036.109c0 .072.036.108.073.144l.036.073c.036.072.073.144.073.216l.036.072c.036.072.036.108.073.145l.036.036c.036.072.073.108.109.18l.036.072a.518.518 0 0 0 .109.145.644.644 0 0 0 .146.18l.036.036.146.145h.036c.036.036.109.072.145.144l.037.036c.072.036.109.072.181.108l.037.036c.072.036.109.072.181.109h.037a.612.612 0 0 0 .181.072l.073.036c.073.036.146.036.218.072.073.036.146.036.218.072h.037c.072 0 .145.036.254.036h.036c.073 0 .146 0 .255.036H127.607c.109 0 .182 0 .291-.036h.073c.109 0 .218-.036.327-.036.654-.108 1.126-.18 1.417-.18.327 0 .509.108.509.324 0 .506-.582.939-1.745 1.227-.145.037-.29.073-.472.109l-.109.036c-.146.036-.291.072-.436.072-.146.036-.291.036-.436.072h-.073c-.146 0-.255.036-.4.036-.145 0-.254 0-.4.036h-.436c-.109 0-.218 0-.327-.036h-.073c-.109 0-.218-.036-.29-.036h-.037a.69.69 0 0 1-.291-.072l-.072-.036c-.073-.036-.182-.036-.255-.072h-.036c-.109-.036-.182-.072-.291-.109l-.072-.036-.219-.108-.036-.036a.76.76 0 0 1-.218-.144l-.073-.036a.635.635 0 0 1-.181-.145l-.037-.036a.437.437 0 0 1-.181-.18l-.073-.072-.145-.145-.037-.036a.62.62 0 0 1-.145-.18l-.073-.073c-.036-.072-.073-.108-.109-.18l-.036-.072c-.037-.072-.073-.144-.146-.217l-.036-.072c-.036-.072-.073-.108-.073-.18l-.036-.072c-.036-.073-.073-.145-.109-.253l-.036-.108c-.037-.072-.037-.109-.073-.18l-.036-.109c-.037-.072-.037-.18-.073-.253l-.036-.108c0-.072-.037-.144-.037-.18l-.036-.109c0-.072-.037-.18-.037-.288v-2.093c0-.109.037-.18.037-.29l.036-.18.037-.18.036-.18c.036-.109.036-.217.073-.361l.036-.145.036-.252.037-.145c.036-.108.072-.252.072-.36l.037-.145.072-.289.037-.144c.036-.108.072-.253.109-.36l.036-.145.109-.289.036-.144c.037-.145.109-.289.146-.397l.036-.072c.036-.109.073-.253.146-.361l.036-.109c.073-.144.109-.288.182-.433l.036-.072c.036-.108.109-.252.145-.36l.037-.109c.072-.144.109-.253.181-.397 1.527-3.212 3.926-6.568 7.015-9.347l.145.108c.255.217.509.47.727.722a25.675 25.675 0 0 0-5.997 8.59Zm43.723 10.537V26.2c0-.108 0-.216-.036-.325a1.03 1.03 0 0 0-.073-.324c-.036-.109-.036-.217-.072-.29-.037-.071-.037-.107-.073-.143-.036-.037-.036-.073-.073-.109-.036-.036-.036-.072-.073-.108l-.036-.036h-.182s-.036 0-.036.036h-.036l-.037.036-.036.036s-.036.036-.036.072-.037.036-.037.072c0 0-.036.037-.036.073s0 .036-.036.072l-.037.072v.433c0 .072 0 .108.037.18 0 .073.036.109.072.181 0 .036.037.072.073.144.036.037.036.073.073.109.036.036.072.072.072.108l.109.108.109.108c.037.037.073.073.146.073.036.036.073.036.145.072 0 .036.037.072.109.108Zm3.671-.036c.036 0 .073-.036.109-.072.036-.036.073-.036.109-.072.037 0 .073-.037.109-.073.073-.036.146-.108.218-.144a.94.94 0 0 0 .218-.18c.073-.073.146-.109.218-.18.073-.073.146-.145.182-.217.073-.073.109-.145.182-.217.036-.072.109-.144.145-.216l.109-.217a.503.503 0 0 0 .073-.216c0-.037.036-.073.036-.145v-.036a.275.275 0 0 0-.145.072c-.073.036-.109.072-.182.108 0 0-.036 0-.036.037-.073.036-.109.072-.182.108a.44.44 0 0 0-.182.18l-.254.253c-.073.072-.145.18-.254.289-.073.108-.146.18-.218.288l-.219.325-.036.072c-.036.072-.109.18-.145.253.072.036.109.036.145 0Zm9.486-10.863-1.345 1.336c-.109.108-.254.108-.327 0l-.581-.65c-.073-.072-.073-.216.036-.325l1.345-1.335c.109-.108.254-.108.327 0l.581.65c.073.072.073.216-.036.324Zm-11.957-3.5c0-.072-.073-.145-.146-.145l-.472-.18c-.109-.036-.255.036-.327.144a.108.108 0 0 0 0 .145l.29 1.335c0 .072.073.144.146.144l.472.18c.109.037.255-.035.327-.144a.108.108 0 0 0 0-.144l-.29-1.335Zm2.108 22.483c.109-.036.218-.145.181-.253 0-.036-.036-.072-.036-.108l-.472-.686a.333.333 0 0 0-.255-.108c-.363.072-.69.144-1.018.18-.363.073-.763.145-1.199.217l-.581.108-.582.108c-.218.037-.4.073-.545.109-.182.036-.327.072-.545.108-.654.144-1.236.289-1.818.47-.545.144-1.126.324-1.708.468a.245.245 0 0 0-.145.29c0 .035.036.035.036.071l.509.686c.073.072.182.108.254.072.546-.144 1.127-.325 1.745-.505a25.13 25.13 0 0 1 1.926-.47c.146-.035.327-.071.545-.108.219-.036.4-.072.546-.108.218-.036.399-.072.581-.108l.582-.108.509-.109.617-.108.873-.108Zm4.906-24.324c.037-.108 0-.18-.072-.216l-.618-.433a.237.237 0 0 0-.327.072c-.037.036-.037.072-.037.108l-.836 3.284c-.036.108 0 .18.073.217l.618.433a.238.238 0 0 0 .327-.072c.073-.109.763-2.996.872-3.393ZM212 25.478c0-.252-.582.037-.691.145-.109.108-.145.144-1.199 1.48-1.272 1.623-2.399 2.85-3.38 3.716-1.49 1.336-2.835 1.985-3.998 1.985-6.215 0 2.399-12.92 2.399-12.883 0-1.191-1.454-2.165-2.435-1.047-1.454 2.563-6.143 11.513-8.541 11.513-3.635 0 1.999-8.95 1.999-9.095 0-.325-.328-.505-.945-.505-2.217 0-4.398 4.98-4.434 8.373-1.745 1.335-4.071 2.706-6.215 2.706-3.017 0-2.436-3.248-1.89-5.16 5.56-1.047 11.267-9.42 5.815-10.07-6.797-.793-13.084 16.565-4.652 16.565 2.507 0 5.052-1.371 7.051-2.85.218 1.19.836 1.984 1.962 1.984 2.508 0 5.234-4.475 6.506-6.351-.909 2.85-2.217 8.264 2.58 8.264 1.745 0 3.635-.902 5.634-2.743 1.563-1.407 2.908-3.067 4.071-4.98.254-.397.363-.758.363-1.047Zm-3.707-13.75c-2.69 3.934-11.413 6.605-12.103.109-.145-1.3.981-1.913 1.381-.47 1.381 5.378 7.124 3.032 9.959.181.508-.469 1.417-.758.763.18Zm-19.699 7.832c0 2.165-3.562 5.125-5.452 5.918.4-1.443 3.271-6.676 4.689-6.676.508 0 .763.253.763.758Zm-60.769 8.553-.436.072c.145 0 .291-.036.436-.072Z"/></g><defs><clipPath id="a"><path fill="#fff" d="M0 0h212v62H0z"/></clipPath></defs></svg>