<svg width="56" height="44" fill="none" xmlns="http://www.w3.org/2000/svg"><path d="M18.73 0c-3.893 0-7.087 3.185-7.087 7.068 0 1.832.73 3.495 1.89 4.756L7.717 23.529c-.21-.019-.414-.064-.63-.064C3.194 23.465 0 26.65 0 30.533c0 3.883 3.194 7.068 7.088 7.068 2.44 0 4.593-1.26 5.869-3.15l29.132 4.265C42.893 41.737 45.641 44 48.912 44 52.806 44 56 40.815 56 36.932c0-3.762-3.004-6.85-6.732-7.04l-3.816-11.87c1.633-1.298 2.707-3.273 2.707-5.502 0-3.883-3.194-7.072-7.088-7.072-2.467 0-4.647 1.283-5.92 3.208l-9.429-2.57C25.235 2.665 22.288 0 18.73 0Zm0 3.582c1.955 0 3.5 1.538 3.5 3.486a3.458 3.458 0 0 1-2.156 3.232 3.485 3.485 0 0 1-1.343.259 3.466 3.466 0 0 1-3.496-3.491 3.462 3.462 0 0 1 3.495-3.486ZM41.071 9.03a3.465 3.465 0 0 1 3.496 3.49 3.462 3.462 0 0 1-3.496 3.486c-1.953 0-3.5-1.538-3.5-3.486a3.454 3.454 0 0 1 1.017-2.475 3.476 3.476 0 0 1 2.483-1.015Zm-16.274 1.633 9.251 2.526c.346 3.561 3.347 6.382 7.001 6.394l3.733 11.638a7.185 7.185 0 0 0-2.24 2.707v.055l-.014.132-1.032-.15.867-5.898-2.291-.333-.867 5.894-3.496-.51.867-5.898-2.291-.337-.867 5.898-3.5-.513 1.204-8.192-2.287-.338-1.21 8.192-3.5-.51.868-5.898-2.291-.332-.868 5.894-3.495-.514.867-5.894-2.291-.337-.868 5.898-1.926-.282.023-.104-.041-.005a7.041 7.041 0 0 0-2.122-4.396l5.668-11.42c.356.057.712.11 1.082.11 2.576 0 4.823-1.408 6.066-3.477Zm-17.71 16.38a3.485 3.485 0 0 1 2.483 1.015 3.464 3.464 0 0 1 1.018 2.475A3.456 3.456 0 0 1 9.57 33.01a3.475 3.475 0 0 1-2.482 1.015 3.485 3.485 0 0 1-2.483-1.015 3.465 3.465 0 0 1-1.018-2.475 3.457 3.457 0 0 1 1.018-2.476 3.475 3.475 0 0 1 2.482-1.015Zm41.825 6.399a3.484 3.484 0 0 1 2.483 1.015 3.464 3.464 0 0 1 1.018 2.476c0 1.948-1.547 3.481-3.5 3.481-1.955 0-3.502-1.533-3.502-3.481a3.457 3.457 0 0 1 1.018-2.476 3.474 3.474 0 0 1 2.483-1.015Z" fill="url(#a)"/><defs><linearGradient id="a" x1="0" y1="22.4" x2="56" y2="22.4" gradientUnits="userSpaceOnUse"><stop stop-color="#AD7DF8"/><stop offset="1" stop-color="#849DF8"/></linearGradient></defs></svg>