<svg width="51" height="41" fill="none" xmlns="http://www.w3.org/2000/svg"><path d="m2.13 37.878 14.078-14.221 7.608 7.284 9.299-8.128 5.18 5.05M48.25 5.469A3.469 3.469 0 0 0 44.781 2H5.47A3.469 3.469 0 0 0 2 5.469v10.406h46.25V5.469Z" stroke="url(#a)" stroke-width="4" stroke-linecap="round" stroke-linejoin="round"/><path d="M48.25 13.563V35.53A3.469 3.469 0 0 1 44.781 39H11.25m8.223-30.063h20.813m-30.065 0h2.312M2 13.564v10.406" stroke="url(#b)" stroke-width="4" stroke-linecap="round" stroke-linejoin="round"/><defs><linearGradient id="a" x1="2" y1="20.265" x2="48.25" y2="20.265" gradientUnits="userSpaceOnUse"><stop stop-color="#AD7DF8"/><stop offset="1" stop-color="#849DF8"/></linearGradient><linearGradient id="b" x1="2" y1="24.242" x2="48.25" y2="24.242" gradientUnits="userSpaceOnUse"><stop stop-color="#AD7DF8"/><stop offset="1" stop-color="#849DF8"/></linearGradient></defs></svg>