<svg width="20" height="20" fill="none" xmlns="http://www.w3.org/2000/svg"><path d="M15.264 12.51a7.405 7.405 0 0 1 2.18 5.101.257.257 0 0 1-.256.262h-1.172a.255.255 0 0 1-.257-.25m-.495-5.114-8.207-1.465a7.273 7.273 0 0 0-2.25 1.538l-.071-.07m10.528-.003a7.435 7.435 0 0 0-2.23-1.536m2.23 1.536-2.23-1.536m2.725 6.65.1-.002m-.1.002.1-.002m-.1.002a5.723 5.723 0 0 0-1.685-3.921A5.72 5.72 0 0 0 10 12.014a5.72 5.72 0 0 0-4.074 1.688 5.723 5.723 0 0 0-1.685 3.922.256.256 0 0 1-.257.25H2.813a.256.256 0 0 1-.257-.263m13.303.01c.002.086.07.152.157.152h1.172a.156.156 0 0 0 .156-.16l-1.485.008Zm-13.303-.01a7.437 7.437 0 0 1 2.18-5.1m-2.18 5.1.1.002-.1-.002Zm2.18-5.1a7.372 7.372 0 0 1 2.23-1.536m-2.23 1.536 2.23-1.536m0 0A4.943 4.943 0 0 1 10 2.127a4.943 4.943 0 0 1 3.034 8.846m-6.068.002 6.068-.002M10 10.33c-.87 0-1.688-.34-2.304-.955A3.238 3.238 0 0 1 6.74 7.07c0-.87.339-1.688.955-2.304A3.238 3.238 0 0 1 10 3.811c.87 0 1.688.339 2.304.955.616.616.955 1.434.955 2.304 0 .87-.339 1.689-.955 2.305A3.238 3.238 0 0 1 10 10.33Z" fill="url(#a)" stroke="url(#b)" stroke-width=".2"/><defs><linearGradient id="a" x1="2.656" y1="10.141" x2="17.344" y2="10.141" gradientUnits="userSpaceOnUse"><stop stop-color="#AD7DF8"/><stop offset="1" stop-color="#849DF8"/></linearGradient><linearGradient id="b" x1="2.656" y1="10.141" x2="17.344" y2="10.141" gradientUnits="userSpaceOnUse"><stop stop-color="#AD7DF8"/><stop offset="1" stop-color="#849DF8"/></linearGradient></defs></svg>