<svg width="40" height="40" fill="none" xmlns="http://www.w3.org/2000/svg"><path d="M6.667 17.222a5 5 0 1 1 10 0 5 5 0 0 1-10 0Zm5-1.666a1.667 1.667 0 1 0 0 3.333 1.667 1.667 0 0 0 0-3.333Zm0 8.888a5 5 0 1 0 0 10 5 5 0 0 0 0-10Zm-1.667 5a1.667 1.667 0 1 1 3.333 0 1.667 1.667 0 0 1-3.333 0Zm10-12.222a1.667 1.667 0 0 1 1.667-1.666h10a1.667 1.667 0 0 1 0 3.333h-10A1.666 1.666 0 0 1 20 17.222Zm1.667 10.556a1.667 1.667 0 1 0 0 3.333h10a1.667 1.667 0 0 0 0-3.333h-10Zm-15-19.445a1.667 1.667 0 0 1 1.666-1.666h23.334a1.667 1.667 0 0 1 0 3.333H8.333a1.667 1.667 0 0 1-1.666-1.667ZM7.222 0A7.222 7.222 0 0 0 0 7.222v25.556A7.222 7.222 0 0 0 7.222 40h25.556A7.223 7.223 0 0 0 40 32.778V7.222A7.222 7.222 0 0 0 32.778 0H7.222ZM3.333 7.222a3.89 3.89 0 0 1 3.89-3.889h25.555a3.89 3.89 0 0 1 3.889 3.89v25.555a3.889 3.889 0 0 1-3.89 3.889H7.223a3.889 3.889 0 0 1-3.889-3.89V7.223Z" fill="url(#a)"/><defs><linearGradient id="a" x1="0" y1="20.364" x2="40" y2="20.364" gradientUnits="userSpaceOnUse"><stop stop-color="#AD7DF8"/><stop offset="1" stop-color="#849DF8"/></linearGradient></defs></svg>