<svg width="39" height="30" fill="none" xmlns="http://www.w3.org/2000/svg"><path fill-rule="evenodd" clip-rule="evenodd" d="M1.004 23.258h1.172V4.045c0-1.011.502-2.023 1.172-2.865C4.185.506 5.02 0 6.193 0h26.614c1.004 0 2.008.506 2.845 1.18a4.08 4.08 0 0 1 1.172 2.865v19.213H39v3.371c0 1.011-.335 1.854-1.004 2.36-.67.674-1.507 1.011-2.344 1.011H3.348c-1.005 0-1.842-.337-2.344-1.011C.334 28.315 0 27.472 0 26.629v-3.37h1.004ZM29.46 16.18c1.005 0 1.674-.169 2.176-.674a2.8 2.8 0 0 0 .837-2.023v-1.685a2.8 2.8 0 0 0-.837-2.023c-.502-.505-1.339-.674-2.176-.674-1.004 0-1.674.169-2.176.674a2.8 2.8 0 0 0-.837 2.023v1.685a2.8 2.8 0 0 0 .837 2.023c.502.505 1.172.674 2.176.674Zm0-1.517c.335 0 .67-.169.837-.337.168-.169.335-.506.335-1.011v-1.686c0-.505-.168-.674-.335-1.011a1.273 1.273 0 0 0-.837-.337c-.334 0-.67.168-.837.337-.167.506-.334.674-.334 1.18v1.685c0 .506.167.674.334 1.011.168.169.503.169.837.169Zm-7.197 1.517c.67 0 1.171-.169 1.674-.337.502-.169.837-.506 1.171-1.011.335-.338.335-.843.335-1.517v-1.18H22.597v1.18H23.6v.168c0 .337-.168.674-.335.843a1.274 1.274 0 0 1-.837.337c-.837 0-1.171-.337-1.171-1.18v-1.685c0-.843.502-1.18 1.171-1.18.335 0 .502 0 .67.168.167 0 .334.17.334.338l.168.168h1.841v-.168c0-.338-.167-.675-.335-1.012-.167-.337-.67-.505-1.004-.842-.502-.169-1.004-.337-1.674-.337-1.004 0-1.674.168-2.176.674a2.8 2.8 0 0 0-.837 2.022v1.686a2.8 2.8 0 0 0 .837 2.022c.335.674 1.172.843 2.009.843Zm-7.03 0c1.004 0 1.674-.169 2.176-.674a2.8 2.8 0 0 0 .837-2.023v-1.685a2.8 2.8 0 0 0-.837-2.023c-.502-.505-1.34-.674-2.176-.674-1.005 0-1.674.169-2.176.674a2.8 2.8 0 0 0-.837 2.023v1.685a2.8 2.8 0 0 0 .837 2.023c.502.505 1.171.674 2.176.674Zm0-1.517c.335 0 .67-.169.837-.337.167-.169.334-.506.334-.843v-1.685c0-.506-.167-.674-.334-1.011a1.274 1.274 0 0 0-.837-.338c-.335 0-.67.169-.837.338-.168.337-.335.505-.335 1.01v1.686c0 .506.167.674.335 1.011.167.169.502.169.837.169ZM6.695 16.01H11.382V14.662H8.369V9.27H6.528V16.01h.167Zm-2.51 7.247h30.63V4.045c0-.506-.167-1.011-.502-1.348-.335-.337-.837-.506-1.339-.506H6.194c-.503 0-1.005.169-1.34.506-.335.168-.67.674-.67 1.348v19.213Zm10.712 2.023v.337h9.206v-.337h-9.206Zm21.927 0H26.112v2.36H12.888v-2.36H2.008v1.348c0 .337.168.674.335 1.011.168.169.502.337 1.005.337h32.304c.335 0 .67-.168 1.005-.337.167-.168.334-.505.334-1.01v-1.35h-.167Z" fill="url(#a)"/><defs><linearGradient id="a" x1="0" y1="15.273" x2="39" y2="15.273" gradientUnits="userSpaceOnUse"><stop stop-color="#AD7DF8"/><stop offset="1" stop-color="#849DF8"/></linearGradient></defs></svg>