<svg width="22" height="21" fill="none" xmlns="http://www.w3.org/2000/svg"><path d="M4.565 19.25c-.485 0-.9-.171-1.246-.514a1.681 1.681 0 0 1-.517-1.236V5.25c0-.481.172-.893.517-1.236.346-.343.761-.514 1.246-.514h.882V1.75H7.21V3.5h7.052V1.75h1.763V3.5h.882c.485 0 .9.171 1.245.514.345.343.518.755.518 1.236V17.5c0 .481-.173.893-.518 1.236-.345.343-.76.514-1.245.514H4.565Zm0-1.75h12.342V8.75H4.565v8.75Zm0-10.5h12.342V5.25H4.565V7Zm0 0V5.25 7Zm6.17 5.25a.854.854 0 0 1-.627-.252.841.841 0 0 1-.254-.623c0-.248.085-.456.254-.624a.856.856 0 0 1 .628-.251.859.859 0 0 1 .881.875.843.843 0 0 1-.253.623.857.857 0 0 1-.628.252Zm-3.525 0a.857.857 0 0 1-.629-.252.843.843 0 0 1-.253-.623.859.859 0 0 1 .882-.875.859.859 0 0 1 .881.875.843.843 0 0 1-.253.623.857.857 0 0 1-.628.252Zm7.052 0a.854.854 0 0 1-.628-.252.841.841 0 0 1-.253-.623c0-.248.084-.456.253-.624a.856.856 0 0 1 .628-.251c.25 0 .46.084.628.251.17.168.254.376.254.624a.841.841 0 0 1-.254.623.854.854 0 0 1-.628.252Zm-3.526 3.5a.854.854 0 0 1-.628-.252.841.841 0 0 1-.254-.623c0-.248.085-.456.254-.623a.854.854 0 0 1 .628-.252c.25 0 .46.084.628.252a.843.843 0 0 1 .253.623.843.843 0 0 1-.253.623.857.857 0 0 1-.628.252Zm-3.526 0a.857.857 0 0 1-.629-.252.843.843 0 0 1-.253-.623c0-.248.084-.456.253-.623A.857.857 0 0 1 7.21 14c.25 0 .459.084.628.252a.843.843 0 0 1 .253.623.843.843 0 0 1-.253.623.857.857 0 0 1-.628.252Zm7.052 0a.854.854 0 0 1-.628-.252.841.841 0 0 1-.253-.623c0-.248.084-.456.253-.623a.854.854 0 0 1 .628-.252c.25 0 .46.084.628.252.17.167.254.375.254.623a.841.841 0 0 1-.254.623.854.854 0 0 1-.628.252Z" fill="url(#a)"/><defs><linearGradient id="a" x1="2.802" y1="10.659" x2="18.67" y2="10.659" gradientUnits="userSpaceOnUse"><stop stop-color="#AD7DF8"/><stop offset="1" stop-color="#849DF8"/></linearGradient></defs></svg>