<svg width="54" height="38" fill="none" xmlns="http://www.w3.org/2000/svg"><path fill-rule="evenodd" clip-rule="evenodd" d="M24.546 18.034v2.147c0 .644-.64 1.288-1.281 1.288-.427 0-.64-.215-1.067-.43l-2.989-2.79H5.55c-1.494 0-2.988-.644-3.841-1.718C.64 15.672 0 14.17 0 12.667V5.582c0-1.503.64-3.006 1.708-3.864C2.56.644 4.055 0 5.549 0h17.716c1.494 0 2.988.644 3.842 1.718C28.174 2.79 28.6 4.079 28.6 5.582v7.085c0 1.502-.64 3.005-1.708 3.864-.427.859-1.494 1.288-2.348 1.503ZM10.671 33.92c.427-.644.854-1.288 1.494-1.718.64-.429 1.28-.644 2.134-.644.854 0 1.494.215 2.135.644.64.43 1.067 1.074 1.494 1.718.213.644 1.067.859 1.707.644.64-.215.854-1.073.64-1.718-.64-1.073-1.493-2.146-2.347-2.79-.64-.43-1.28-.645-2.134-.86.64-.214 1.067-.429 1.493-.858.64-.644 1.281-1.717 1.281-2.791 0-1.073-.427-2.147-1.28-2.79-.64-.645-1.708-1.29-2.775-1.29s-2.135.43-2.775 1.29c-.64.643-1.28 1.717-1.28 2.79 0 1.074.426 2.147 1.28 2.791.427.43.854.644 1.494.859-.854.214-1.494.43-2.134.858-1.067.645-1.921 1.718-2.348 2.791-.213.645 0 1.503.64 1.718.214.43 1.068 0 1.28-.644Zm4.696-9.661c.213.215.426.644.426 1.073 0 .43-.213.86-.426 1.074-.214.215-.64.43-1.068.43-.427 0-.853-.215-1.067-.43a1.645 1.645 0 0 1-.427-1.074c0-.429.214-.858.427-1.073.214-.215.64-.43 1.067-.43.427 0 .854.215 1.068.43Zm20.49-11.593c-.214.644-1.067.858-1.708.644-.64-.215-.854-1.074-.64-1.718.64-1.073 1.494-2.147 2.348-2.79.64-.43 1.28-.645 2.134-.86-.64-.214-1.067-.429-1.494-.858-.64-.644-1.28-1.718-1.28-2.791 0-1.074.426-2.147 1.28-2.791C37.352.429 38.419 0 39.486 0s2.135.43 2.775 1.288c.64.644 1.28 1.718 1.28 2.791 0 1.074-.426 2.147-1.28 2.791-.427.43-.854.644-1.494.859.854.215 1.494.43 2.134.859 1.067.644 1.921 1.717 2.348 2.79.213.645 0 1.503-.64 1.718-.64.215-1.494 0-1.708-.644-.427-.644-.854-1.288-1.494-1.717-.64-.43-1.28-.645-2.134-.645-.854 0-1.494.215-2.135.645-.426.644-1.067 1.288-1.28 1.932Zm4.695-9.661a1.626 1.626 0 0 0-1.067-.43c-.427 0-.854.215-1.067.43a1.645 1.645 0 0 0-.427 1.073c0 .43.214.859.427 1.074.213.214.64.429 1.067.429.427 0 .854-.215 1.067-.43.214-.214.427-.644.427-1.073 0-.43-.213-.859-.427-1.073Zm5.763 23.616c.64 0 1.28.643 1.28 1.288 0 .644-.64 1.288-1.28 1.288H32.443c-.64 0-1.28-.644-1.28-1.288 0-.645.64-1.288 1.28-1.288h13.873Zm0-4.724c.64 0 1.28.644 1.28 1.288 0 .645-.64 1.289-1.28 1.289H32.443c-.64 0-1.28-.645-1.28-1.289 0-.644.64-1.288 1.28-1.288h13.873Zm-14.3 11.594v.429l1.28-1.288c.214-.43.64-.43.854-.43h14.087c.854 0 1.494-.429 2.134-.858.64-.644.854-1.288.854-2.147v-7.085c0-.859-.427-1.503-.854-2.147-.64-.644-1.28-.859-2.134-.859H30.522c-.854 0-1.494.43-2.135.86-.427.643-.853 1.287-.853 2.146v7.085c0 .858.427 1.503.853 2.147.64.644 1.281.858 2.135.858.854 0 1.494.43 1.494 1.288Zm-2.561 3.22c0 .644.64 1.288 1.28 1.288.427 0 .64-.215 1.067-.43l2.989-2.79h13.66c1.494 0 2.988-.644 3.841-1.718C53.36 31.99 54 30.701 54 29.198v-7.085c0-1.503-.64-3.006-1.708-3.864-1.067-1.074-2.347-1.718-4.055-1.718H30.522c-1.494 0-2.988.644-3.842 1.718-1.067 1.073-1.494 2.361-1.494 3.864v7.085c0 1.503.64 3.005 1.707 3.864.64.644 1.708 1.288 2.561 1.503v2.147ZM7.47 12.882h13.874c.64 0 1.28-.645 1.28-1.289 0-.644-.64-1.288-1.28-1.288H7.47c-.64 0-1.28.43-1.28 1.288 0 .644.64 1.288 1.28 1.288Zm0-4.938h13.874c.64 0 1.28-.645 1.28-1.289 0-.644-.64-1.288-1.28-1.288H7.47c-.64 0-1.28.644-1.28 1.288 0 .86.64 1.288 1.28 1.288Zm14.514 9.231v-.215c0-.644.64-1.288 1.28-1.288.855 0 1.495-.43 2.135-.858.64-.43.854-1.289.854-2.147V5.582c0-.859-.213-1.503-.854-2.147-.64-.644-1.28-.859-2.134-.859H5.549c-.853 0-1.494.43-2.134.859-.64.644-.854 1.288-.854 2.147v7.085c0 .858.427 1.502.854 2.147.64.644 1.28.858 2.134.858h14.087c.214 0 .64.215.854.43l1.494 1.073Z" fill="url(#a)"/><defs><linearGradient id="a" x1="0" y1="19.346" x2="54" y2="19.346" gradientUnits="userSpaceOnUse"><stop stop-color="#AD7DF8"/><stop offset="1" stop-color="#849DF8"/></linearGradient></defs></svg>