<svg width="49" height="37" fill="none" xmlns="http://www.w3.org/2000/svg"><path fill-rule="evenodd" clip-rule="evenodd" d="M7.748 0h33.504c1.256 0 2.513.624 3.56 1.455a4.997 4.997 0 0 1 1.466 3.534v23.696H49v4.158c0 1.039-.419 2.078-1.256 2.91-.838.831-1.885 1.247-2.932 1.247H4.188c-1.256 0-2.303-.416-2.932-1.247C.42 34.92 0 33.882 0 32.843v-4.158h2.722V4.99c0-1.247.628-2.495 1.466-3.534C5.235.624 6.282 0 7.748 0ZM34.76 14.966l.837-.831c.42-.416 1.257-.416 1.675 0 .42.416.42 1.247 0 1.663l-2.931 2.91h-.838l-2.931-2.91c-.42-.416-.42-1.247 0-1.663.418-.416 1.256-.416 1.675 0l.838.831V2.494h-5.654V21.41c0 .624-.629 1.247-1.257 1.247H11.098c-.628 0-1.256-.623-1.256-1.247V2.494H7.748c-.628 0-1.257.208-1.675.624-.42.416-.838 1.04-.838 1.87v23.697h38.321V4.99c0-.624-.21-1.247-.629-1.663-.419-.416-1.047-.624-1.675-.624h-6.491v12.264ZM15.286 17.67h2.932c.628 0 1.256-.624 1.256-1.248 0-.623-.628-1.247-1.256-1.247h-2.932c-.628 0-1.256.624-1.256 1.247 0 .624.419 1.248 1.256 1.248Zm0-4.99h5.864c.628 0 1.256-.623 1.256-1.246 0-.624-.628-1.248-1.256-1.248h-5.864c-.628 0-1.256.624-1.256 1.248 0 .623.419 1.247 1.256 1.247Zm0-4.988h5.864c.628 0 1.256-.624 1.256-1.247 0-.624-.628-1.247-1.256-1.247h-5.864c-.628 0-1.256.623-1.256 1.247 0 .623.419 1.247 1.256 1.247Zm-2.931-5.197v17.669h11.517V2.494H12.355ZM46.068 31.18H32.667v2.91H16.124v-2.91H2.512v1.663c0 .415.21.831.42 1.247.209.208.628.416 1.256.416h40.415c.418 0 .837-.208 1.256-.416.21-.208.419-.624.419-1.247V31.18h-.21Zm-15.914 0H18.637v.416h11.517v-.416Z" fill="url(#a)"/><defs><linearGradient id="a" x1="0" y1="18.836" x2="49" y2="18.836" gradientUnits="userSpaceOnUse"><stop stop-color="#AD7DF8"/><stop offset="1" stop-color="#849DF8"/></linearGradient></defs></svg>