<svg width="49" height="37" fill="none" xmlns="http://www.w3.org/2000/svg"><path fill-rule="evenodd" clip-rule="evenodd" d="M1.262 28.685h1.472V4.99c0-1.247.63-2.495 1.472-3.534C5.258.624 6.309 0 7.781 0H41.22c1.262 0 2.523.624 3.575 1.455a4.986 4.986 0 0 1 1.472 3.534v23.696H49v4.158c0 1.039-.42 2.078-1.262 2.91-.841.831-1.892 1.247-2.944 1.247H4.206c-1.051 0-2.103-.416-2.944-1.247C.42 34.92 0 33.882 0 32.843v-4.158h1.262Zm12.618-3.533h.21l2.944-2.91c.42-.416.42-1.248 0-1.663-.42-.416-1.261-.416-1.682 0l-.841.831V10.185l.84.832c.421.416 1.263.416 1.683 0 .42-.416.42-1.247 0-1.663l-2.523-2.91h-.841l-3.996 2.91c-.42.416-.42 1.247 0 1.663.42.416 1.262.416 1.682 0l.841-.832v10.601l-.84-.83c-.421-.417-1.263-.417-1.683 0-.42.415-.42 1.246 0 1.662l2.944 3.118h.42c.631.416.631.416.842.416Zm9.253-.832h6.73c.63 0 1.262-.623 1.262-1.247 0-.624-.631-1.247-1.262-1.247h-6.73c-.63 0-1.262.623-1.262 1.247 0 .624.631 1.247 1.262 1.247Zm0-9.977h15.352c.63 0 1.262-.624 1.262-1.248 0-.623-.631-1.247-1.262-1.247H23.133c-.63 0-1.262.624-1.262 1.247 0 .624.631 1.248 1.262 1.248Zm0 4.988h15.352c.63 0 1.262-.623 1.262-1.247 0-.623-.631-1.247-1.262-1.247H23.133c-.63 0-1.262.624-1.262 1.247 0 .624.631 1.247 1.262 1.247Zm0-9.977h15.352c.63 0 1.262-.624 1.262-1.247 0-.624-.631-1.247-1.262-1.247H23.133c-.63 0-1.262.623-1.262 1.247 0 .623.631 1.247 1.262 1.247ZM5.258 28.685h38.485V4.99c0-.624-.21-1.247-.631-1.663-.421-.416-1.052-.624-1.683-.624H7.781c-.63 0-1.262.208-1.682.624-.42.208-.841.831-.841 1.663v23.696Zm13.459 2.495v.416h11.566v-.416H18.717Zm-2.524 0H2.524v1.663c0 .415.21.831.42 1.247.21.208.631.416 1.262.416h40.588c.42 0 .841-.208 1.262-.416.21-.208.42-.624.42-1.247V31.18H32.806v2.91H16.194v-2.91Z" fill="url(#a)"/><defs><linearGradient id="a" x1="0" y1="18.836" x2="49" y2="18.836" gradientUnits="userSpaceOnUse"><stop stop-color="#AD7DF8"/><stop offset="1" stop-color="#849DF8"/></linearGradient></defs></svg>