<svg width="45" height="43" fill="none" xmlns="http://www.w3.org/2000/svg"><path fill-rule="evenodd" clip-rule="evenodd" d="M34.597 34.832v6.727c0 .72-.726 1.441-1.452 1.441-.484 0-.726-.24-1.21-.48l-7.741-7.688H12.097c-3.387 0-6.29-1.44-8.468-3.363C1.452 29.307 0 26.425 0 23.061v-11.29c0-3.363 1.452-6.246 3.387-8.408C5.565 1.441 8.71 0 11.855 0h21.29c3.387 0 6.29 1.441 8.468 3.363C43.79 5.525 45 8.408 45 11.771v11.29c0 3.364-1.452 6.246-3.387 8.408-1.694 1.922-4.113 3.123-7.016 3.363ZM11.855 24.743h21.29c.726 0 1.452-.72 1.452-1.441 0-.721-.726-1.442-1.452-1.442h-21.29c-.726 0-1.452.721-1.452 1.442 0 .72.726 1.441 1.452 1.441Zm0-5.765h21.29c.726 0 1.452-.721 1.452-1.442 0-.72-.726-1.441-1.452-1.441h-21.29c-.726 0-1.452.72-1.452 1.441 0 .721.726 1.442 1.452 1.442Zm0-5.766h21.29c.726 0 1.452-.72 1.452-1.441 0-.72-.726-1.441-1.452-1.441h-21.29c-.726 0-1.452.72-1.452 1.441 0 .72.726 1.441 1.452 1.441Zm19.839 24.984V33.39c0-.72.725-1.441 1.451-1.441 2.42 0 4.839-.961 6.29-2.643 1.694-1.681 2.662-3.843 2.662-6.245V11.77c0-2.402-.968-4.805-2.662-6.246-1.693-1.681-3.87-2.642-6.29-2.642h-21.29c-2.42 0-4.839.96-6.29 2.642-1.452 1.682-2.662 3.844-2.662 6.246v11.29c0 2.403.968 4.805 2.662 6.246 1.693 1.682 3.87 2.643 6.29 2.643h12.822c.242 0 .726.24.968.48l6.049 5.766Z" fill="url(#a)"/><defs><linearGradient id="a" x1="0" y1="21.891" x2="45" y2="21.891" gradientUnits="userSpaceOnUse"><stop stop-color="#AD7DF8"/><stop offset="1" stop-color="#849DF8"/></linearGradient></defs></svg>