<svg width="49" height="37" fill="none" xmlns="http://www.w3.org/2000/svg"><path fill-rule="evenodd" clip-rule="evenodd" d="M1.262 28.685h1.472V4.99c0-1.247.63-2.495 1.472-3.534C5.258.624 6.309 0 7.781 0H41.22c1.262 0 2.523.624 3.575 1.455a4.986 4.986 0 0 1 1.472 3.534v23.696H49v4.158c0 1.039-.42 2.078-1.262 2.91-.841.831-1.892 1.247-2.944 1.247H4.206c-1.051 0-2.103-.416-2.944-1.247C.42 34.92 0 33.882 0 32.843v-4.158h1.262ZM13.88 16.214c-.841 0-1.683.415-2.314 1.039-.63.416-1.051 1.247-1.051 2.286v2.703c0 .831.42 1.662 1.051 2.286.631.624 1.473 1.04 2.314 1.04h2.734c.84 0 1.682-.416 2.313-1.04.63-.623 1.052-1.455 1.052-2.286v-2.703c0-.831-.421-1.663-1.052-2.286a3.503 3.503 0 0 0-2.524-1.04H13.88Zm2.523 2.494H13.88c-.21 0-.42 0-.631.208 0 .208-.21.415-.21.623v2.703c0 .207 0 .415.21.415s.42.208.63.208h2.735c.21 0 .42 0 .42-.208.21-.208.21-.415.21-.415v-2.703c0-.208 0-.415-.21-.415-.21-.416-.42-.416-.63-.416ZM13.88 5.82c-.841 0-1.683.416-2.314 1.04-.63.415-1.051 1.247-1.051 2.286v2.702c0 .624.42 1.455 1.051 2.079.631.624 1.473 1.04 2.314 1.04h2.734c.84 0 1.682-.416 2.313-1.04.42-.624.841-1.455.841-2.287V9.146c0-.831-.42-1.663-1.051-2.286-.42-.624-1.262-1.04-2.314-1.04H13.88Zm11.566 18.708h11.777c.631 0 1.262-.623 1.262-1.247 0-.624-.63-1.247-1.262-1.247H25.446c-.63 0-1.261.623-1.261 1.247 0 .623.63 1.247 1.261 1.247Zm0-4.989h11.777c.631 0 1.262-.623 1.262-1.247 0-.623-.63-1.247-1.262-1.247H25.446c-.63 0-1.261.623-1.261 1.247 0 .624.63 1.247 1.261 1.247Zm0-5.404h11.777c.631 0 1.262-.624 1.262-1.247 0-.624-.63-1.248-1.262-1.248H25.446c-.63 0-1.261.624-1.261 1.248 0 .623.63 1.247 1.261 1.247Zm0-4.989h11.777c.631 0 1.262-.624 1.262-1.247 0-.624-.63-1.247-1.262-1.247H25.446c-.63 0-1.261.623-1.261 1.247 0 .623.63 1.247 1.261 1.247ZM5.258 28.686h38.485V4.988c0-.624-.21-1.247-.631-1.663-.421-.416-1.052-.624-1.683-.624H7.781c-.63 0-1.262.208-1.682.624-.42.208-.841.831-.841 1.663v23.696Zm13.459 2.494v.416h11.566v-.416H18.717Zm-2.524 0H2.524v1.663c0 .415.21.831.42 1.247.21.208.631.416 1.262.416h40.588c.42 0 .841-.208 1.262-.416.21-.208.42-.624.42-1.247V31.18H32.806v2.91H16.194v-2.91Z" fill="url(#a)"/><defs><linearGradient id="a" x1="0" y1="18.836" x2="49" y2="18.836" gradientUnits="userSpaceOnUse"><stop stop-color="#AD7DF8"/><stop offset="1" stop-color="#849DF8"/></linearGradient></defs></svg>