<svg width="49" height="37" fill="none" xmlns="http://www.w3.org/2000/svg"><path fill-rule="evenodd" clip-rule="evenodd" d="M1.262 28.685h1.472V4.99c0-1.247.63-2.495 1.472-3.534C5.258.624 6.309 0 7.781 0H41.22c1.262 0 2.523.624 3.575 1.455a4.986 4.986 0 0 1 1.472 3.534v23.696H49v4.158c0 1.039-.42 2.078-1.262 2.91-.841.831-1.892 1.247-2.944 1.247H4.206c-1.262 0-2.313-.416-2.944-1.247C.42 34.92 0 33.882 0 32.843v-4.158h1.262Zm34.7-5.612v-1.247h1.261c.631 0 1.262-.624 1.262-1.247v-4.573c0-.624-.63-1.248-1.262-1.248h-1.262V7.691c0-.624-.63-1.247-1.261-1.247-.631 0-1.262.623-1.262 1.247v7.067h-1.262c-.63 0-1.262.624-1.262 1.248v4.573c0 .623.631 1.247 1.262 1.247h1.262v1.247c0 .624.63 1.247 1.262 1.247.63 0 1.261-.623 1.261-1.247Zm-10.095 0v-7.067h1.262c.63 0 1.262-.624 1.262-1.248v-4.573c0-.623-.631-1.247-1.262-1.247h-1.262V7.691c0-.624-.63-1.247-1.262-1.247-.63 0-1.262.623-1.262 1.247v1.247h-1.262c-.63 0-1.261.624-1.261 1.247v4.573c0 .624.63 1.248 1.261 1.248h1.262v7.067c0 .624.631 1.247 1.262 1.247s1.262-.623 1.262-1.247ZM13.249 12.056h-1.262c-.63 0-1.262.624-1.262 1.247v4.573c0 .624.631 1.248 1.262 1.248h1.262v3.949c0 .624.63 1.247 1.262 1.247.63 0 1.262-.623 1.262-1.247v-3.95h1.051c.63 0 1.262-.623 1.262-1.247v-4.573c0-.623-.631-1.247-1.262-1.247h-1.052V7.691c0-.624-.63-1.247-1.261-1.247-.631 0-1.262.623-1.262 1.247v4.365Zm20.189 5.197v2.078h2.313v-2.078H33.438Zm-10.095-5.82v2.078h2.524v-2.078h-2.524ZM13.25 14.55v2.078h2.524v-2.078h-2.524ZM5.258 28.685h38.485V4.99c0-.624-.21-1.247-.631-1.663-.421-.416-1.052-.624-1.683-.624H7.781c-.63 0-1.262.208-1.682.624-.42.208-.841.831-.841 1.663v23.696Zm13.459 2.495v.416h11.566v-.416H18.717Zm27.55 0h-13.46v2.91H16.193v-2.91H2.524v1.663c0 .415.21.831.42 1.247.21.208.631.416 1.262.416h40.588c.42 0 .841-.208 1.262-.416.21-.208.42-.624.42-1.247V31.18h-.21Z" fill="url(#a)"/><defs><linearGradient id="a" x1="0" y1="18.836" x2="49" y2="18.836" gradientUnits="userSpaceOnUse"><stop stop-color="#AD7DF8"/><stop offset="1" stop-color="#849DF8"/></linearGradient></defs></svg>