<svg width="39" height="29" fill="none" xmlns="http://www.w3.org/2000/svg"><path fill-rule="evenodd" clip-rule="evenodd" d="M1.004 22.483h1.172V3.91c0-.977.502-1.955 1.172-2.77C4.185.49 5.02 0 6.193 0h26.614c1.004 0 2.008.489 2.845 1.14a3.879 3.879 0 0 1 1.172 2.77v18.573H39v3.259c0 .977-.335 1.792-1.004 2.28-.67.652-1.507.978-2.344.978H3.348c-1.005 0-1.842-.326-2.344-.977C.334 27.37 0 26.556 0 25.742v-3.259h1.004ZM25.777 4.888 24.605 6.19c-1.339-1.14-3.18-1.792-5.021-1.792-2.176 0-4.185.814-5.524 2.28-1.674 1.467-2.51 3.422-2.51 5.54s.836 4.073 2.343 5.377c1.506 1.466 3.347 2.28 5.523 2.28 2.176 0 4.185-.814 5.524-2.28 1.506-1.467 2.343-3.259 2.343-5.377 0-1.63-.502-3.258-1.506-4.399l1.339-1.466c.335-.326.335-.978-.168-1.303-.334-.49-.836-.49-1.171-.163Zm-1.34 4.399-4.184 4.724-5.858-4.724a5.514 5.514 0 0 0-.837 2.932c0 1.63.67 2.933 1.674 4.073 1.004.978 2.51 1.63 4.184 1.63 1.674 0 3.013-.652 4.185-1.63 1.004-.977 1.674-2.444 1.674-4.073 0-1.14-.335-2.118-.837-2.932Zm-5.02 2.443 3.682-4.073c-1.005-.651-2.176-1.14-3.683-1.14a5.947 5.947 0 0 0-3.682 1.303l3.682 3.91ZM4.184 22.483h30.63V3.91c0-.489-.167-.977-.502-1.303-.335-.326-.837-.489-1.339-.489H6.194c-.503 0-1.005.163-1.34.489-.335.163-.67.651-.67 1.303v18.573Zm10.712 1.955v.326h9.206v-.326h-9.206Zm21.927 0H26.112v2.281H12.888v-2.28H2.008v1.303c0 .325.168.651.335.977.168.163.502.326 1.005.326h32.304c.335 0 .67-.163 1.005-.326.167-.163.334-.489.334-.977v-1.304h-.167Z" fill="url(#a)"/><defs><linearGradient id="a" x1="0" y1="14.764" x2="39" y2="14.764" gradientUnits="userSpaceOnUse"><stop stop-color="#AD7DF8"/><stop offset="1" stop-color="#849DF8"/></linearGradient></defs></svg>