<svg width="45" height="45" fill="none" xmlns="http://www.w3.org/2000/svg"><rect x="1" y="1" width="43" height="43" rx="21.5" stroke="url(#a)" stroke-width="2"/><path d="M34.94 34.666a13.637 13.637 0 0 0-2.893-4.353 13.476 13.476 0 0 0-4.29-2.937c-.015-.007-.03-.01-.044-.018a9.057 9.057 0 0 0 3.691-7.323C31.404 15.044 27.42 11 22.5 11c-4.919 0-8.904 4.044-8.904 9.035a9.07 9.07 0 0 0 3.69 7.327c-.014.007-.028.01-.042.018a13.363 13.363 0 0 0-4.29 2.936 13.699 13.699 0 0 0-2.895 4.354A13.711 13.711 0 0 0 9 39.701a.295.295 0 0 0 .176.276.284.284 0 0 0 .111.023h2.155a.289.289 0 0 0 .287-.284 10.94 10.94 0 0 1 3.152-7.443c2.036-2.066 4.74-3.203 7.619-3.203 2.88 0 5.583 1.137 7.619 3.203a10.94 10.94 0 0 1 3.152 7.443c.004.16.13.284.287.284h2.155a.284.284 0 0 0 .267-.185.294.294 0 0 0 .02-.114 13.745 13.745 0 0 0-1.06-5.035ZM22.5 26.302a6.09 6.09 0 0 1-4.366-1.837 6.272 6.272 0 0 1-1.81-4.43c0-1.672.643-3.246 1.81-4.43a6.091 6.091 0 0 1 4.366-1.836c1.648 0 3.199.652 4.366 1.836a6.272 6.272 0 0 1 1.81 4.43 6.272 6.272 0 0 1-1.81 4.43 6.09 6.09 0 0 1-4.366 1.837Z" fill="url(#b)"/><defs><linearGradient id="a" x1="0" y1="22.909" x2="45" y2="22.909" gradientUnits="userSpaceOnUse"><stop stop-color="#AD7DF8"/><stop offset="1" stop-color="#849DF8"/></linearGradient><linearGradient id="b" x1="9" y1="25.764" x2="36" y2="25.764" gradientUnits="userSpaceOnUse"><stop stop-color="#AD7DF8"/><stop offset="1" stop-color="#849DF8"/></linearGradient></defs></svg>