<svg width="16" height="15" fill="none" xmlns="http://www.w3.org/2000/svg"><path d="m13.91 14.428.002.001a.694.694 0 0 0 .97 0 .675.675 0 0 0 0-.965L10.788 9.42a5.54 5.54 0 0 0 1.184-3.425c0-3.111-2.567-5.626-5.724-5.626S.524 2.884.524 5.995s2.567 5.625 5.724 5.625a5.76 5.76 0 0 0 3.574-1.232l4.089 4.04Zm-7.662-4.16c-2.41 0-4.355-1.918-4.355-4.273 0-2.356 1.946-4.273 4.355-4.273 2.41 0 4.356 1.917 4.356 4.273 0 2.355-1.946 4.272-4.356 4.272Z" fill="url(#a)" stroke="url(#b)" stroke-width=".5"/><defs><linearGradient id="a" x1=".774" y1="7.623" x2="14.834" y2="7.623" gradientUnits="userSpaceOnUse"><stop stop-color="#AD7DF8"/><stop offset="1" stop-color="#849DF8"/></linearGradient><linearGradient id="b" x1=".774" y1="7.623" x2="14.834" y2="7.623" gradientUnits="userSpaceOnUse"><stop stop-color="#AD7DF8"/><stop offset="1" stop-color="#849DF8"/></linearGradient></defs></svg>