<svg width="43" height="43" fill="none" xmlns="http://www.w3.org/2000/svg"><path fill-rule="evenodd" clip-rule="evenodd" d="M21.5 38.969a17.39 17.39 0 0 0 8.734-2.338v-5.725a6.047 6.047 0 0 0-6.047-6.047h-5.375a6.047 6.047 0 0 0-6.046 6.047v5.725a17.39 17.39 0 0 0 8.734 2.338Zm12.766-8.063v2.518a17.469 17.469 0 1 0-25.532 0v-2.518a10.084 10.084 0 0 1 6.681-9.492 8.063 8.063 0 1 1 12.17 0 10.084 10.084 0 0 1 6.68 9.492ZM21.5 43a21.5 21.5 0 1 0 0-43 21.5 21.5 0 0 0 0 43Zm4.031-26.875a4.031 4.031 0 1 1-8.062 0 4.031 4.031 0 0 1 8.062 0Z" fill="url(#a)"/><defs><linearGradient id="a" x1="0" y1="21.891" x2="43" y2="21.891" gradientUnits="userSpaceOnUse"><stop stop-color="#AD7DF8"/><stop offset="1" stop-color="#849DF8"/></linearGradient></defs></svg>