<svg width="27" height="33" fill="none" xmlns="http://www.w3.org/2000/svg"><path fill-rule="evenodd" clip-rule="evenodd" d="M13.5 6.475c-1.62 0-2.88.74-3.96 1.665s-1.62 2.59-1.62 4.07c0 1.48.72 2.96 1.62 4.07 1.08 1.11 2.34 1.665 3.96 1.665s2.88-.555 3.96-1.665c1.08-1.11 1.62-2.405 1.62-4.07 0-1.665-.54-2.96-1.62-4.07-1.08-1.11-2.34-1.665-3.96-1.665Zm5.04 12.58c.54-.555 1.08-.74 1.8-.74.36 0 .54 0 .9.185.36-.555.72-1.11 1.08-1.85l.54-1.11v-.185c.36-.925.36-2.035.36-2.96 0-2.775-1.08-5.365-2.88-7.03-1.8-1.85-4.14-2.96-6.84-2.96-2.7-.185-5.04.925-6.84 2.775-1.8 1.85-2.88 4.255-2.88 7.03 0 .555 0 1.11.18 1.48 0 .555.18.925.36 1.48v.37c0 .555-.54 1.11-1.08 1.11-.9 0-1.62-.37-2.34-.925a3.106 3.106 0 0 1-.9-2.22V10.36c0-.925.36-1.665.9-2.405.54-.37 1.08-.74 1.62-.925.54-1.295 1.44-2.405 2.34-3.515C7.2 1.295 10.26 0 13.5 0s6.3 1.295 8.46 3.515c.9.925 1.8 2.22 2.34 3.515.72.185 1.26.37 1.8.925.54.74.9 1.48.9 2.405v3.145c0 .925-.36 1.665-.9 2.405-.36.37-.9.555-1.44.74-.18.37-.18.555-.36.925-.36.925-.9 1.665-1.44 2.405.18.37.18.555.18.925 0 .74-.36 1.295-.72 1.85-.54.555-1.08.74-1.8.74s-1.26-.37-1.8-.74c-.54-.555-.72-1.11-.72-1.85-.18-.74.18-1.48.54-1.85Zm7.56 12.396c-1.08-2.405-2.88-4.44-5.22-5.92-2.16-1.48-4.68-2.22-7.38-2.22s-5.22.74-7.38 2.22C3.96 27.01 2.16 29.046.9 31.45c-.18.555 0 1.295.54 1.48.54.185 1.26 0 1.44-.555 1.08-2.035 2.52-3.7 4.32-4.995 1.8-1.11 3.96-1.85 6.3-1.85s4.5.74 6.3 1.85c1.8 1.294 3.42 2.96 4.32 4.995.18.555.9.74 1.44.555.54-.185.72-.925.54-1.48ZM8.1 6.66c1.44-1.48 3.42-2.406 5.58-2.406s3.96.925 5.4 2.22a8.23 8.23 0 0 1 2.34 5.735c0 2.22-.9 4.255-2.34 5.735-1.44 1.48-3.42 2.405-5.58 2.405s-4.14-.925-5.58-2.405c-1.44-1.48-2.16-3.515-2.16-5.735s.9-4.07 2.34-5.55Z" fill="url(#a)"/><defs><linearGradient id="a" x1="0" y1="16.8" x2="27" y2="16.8" gradientUnits="userSpaceOnUse"><stop stop-color="#AD7DF8"/><stop offset="1" stop-color="#849DF8"/></linearGradient></defs></svg>