<svg width="34" height="33" fill="none" xmlns="http://www.w3.org/2000/svg"><path fill-rule="evenodd" clip-rule="evenodd" d="M18.636 15.616h1.047c1.884 0 3.35-.633 4.607-1.899 1.256-1.266 1.884-2.743 1.884-4.643 0-1.899-.838-3.376-1.884-4.642a6.47 6.47 0 0 0-4.607-1.9c-1.675 0-3.141.633-4.397 1.689-.838.844-1.466 1.688-1.885 2.743h3.979c.628 0 1.256.633 1.256 1.266v7.386Zm-7.748-8.652c.42-1.9 1.466-3.376 2.723-4.643C15.286.844 17.378 0 19.683 0c2.512 0 4.607 1.055 6.282 2.532 1.675 1.689 2.722 4.01 2.722 6.542 0 2.533-1.047 4.854-2.722 6.542-1.675 1.689-3.979 2.744-6.492 2.744h-1.046v3.587h.837c3.14 0 6.072.844 8.585 2.533a18.804 18.804 0 0 1 6.073 6.753c.209.633 0 1.477-.629 1.688-.628.21-1.465 0-1.675-.633-1.047-2.322-2.931-4.432-5.025-5.698-2.094-1.266-4.607-2.11-7.329-2.11h-1.047v7.175c0 .633-.628 1.266-1.256 1.266H1.256C.628 32.92 0 32.288 0 31.655V8.23c0-.633.628-1.266 1.256-1.266h9.632Zm5.235 2.532v20.892H2.513V9.497h13.61ZM5.863 26.59h3.978c.629 0 1.257-.633 1.257-1.266s-.628-1.266-1.257-1.266H5.863c-.628 0-1.256.633-1.256 1.266s.628 1.266 1.256 1.266Zm0-5.487h6.91c.628 0 1.256-.633 1.256-1.266s-.628-1.266-1.256-1.266h-6.91c-.628 0-1.256.422-1.256 1.266 0 .633.628 1.266 1.256 1.266Zm0-5.065c-.628 0-1.256-.633-1.256-1.266s.628-1.266 1.256-1.266h6.91c.628 0 1.256.633 1.256 1.266s-.628 1.266-1.256 1.266h-6.91Z" fill="url(#a)"/><defs><linearGradient id="a" x1="0" y1="16.8" x2="34" y2="16.8" gradientUnits="userSpaceOnUse"><stop stop-color="#AD7DF8"/><stop offset="1" stop-color="#849DF8"/></linearGradient></defs></svg>