<svg width="45" height="41" fill="none" xmlns="http://www.w3.org/2000/svg"><path d="M1.434 2.196C1.434.98 2.39 0 3.577 0h2.857C7.62 0 8.576.98 8.576 2.196V13.18h1.429c1.187 0 2.142.979 2.142 2.196s-.955 2.196-2.142 2.196H2.863c-1.188 0-2.143-.979-2.143-2.196s.955-2.196 2.143-2.196H4.29V4.393h-.714c-1.187 0-2.143-.98-2.143-2.197Zm5.598 26.101a1.347 1.347 0 0 0-2.143.11l-1 1.419a2.11 2.11 0 0 1-2.99.512c-.964-.704-1.188-2.077-.5-3.066l.99-1.427a5.574 5.574 0 0 1 8.857-.449c1.901 2.233 1.857 5.574-.098 7.752l-3.107 3.46h2.964c1.187 0 2.142.978 2.142 2.196 0 1.217-.955 2.196-2.142 2.196H2.149a2.137 2.137 0 0 1-1.964-1.318 2.25 2.25 0 0 1 .383-2.37l6.428-7.139c.473-.53.482-1.336.027-1.876h.009ZM19.289 2.93h22.854c1.58 0 2.857 1.308 2.857 2.928 0 1.62-1.277 2.929-2.857 2.929H19.29c-1.58 0-2.857-1.309-2.857-2.929 0-1.62 1.277-2.928 2.857-2.928Zm0 14.642h22.854c1.58 0 2.857 1.31 2.857 2.929 0 1.62-1.277 2.929-2.857 2.929H19.29c-1.58 0-2.857-1.31-2.857-2.929 0-1.62 1.277-2.929 2.857-2.929Zm0 14.643h22.854c1.58 0 2.857 1.309 2.857 2.929 0 1.62-1.277 2.928-2.857 2.928H19.29c-1.58 0-2.857-1.308-2.857-2.928 0-1.62 1.277-2.929 2.857-2.929Z" fill="url(#a)"/><defs><linearGradient id="a" x1="0" y1="20.873" x2="45" y2="20.873" gradientUnits="userSpaceOnUse"><stop stop-color="#AD7DF8"/><stop offset="1" stop-color="#849DF8"/></linearGradient></defs></svg>