<svg width="45" height="45" fill="none" xmlns="http://www.w3.org/2000/svg"><path d="M11.225 10.2a4.1 4.1 0 1 0 8.2 0 4.1 4.1 0 0 0-8.2 0Zm18.45 12.3a4.1 4.1 0 1 0 8.2 0 4.1 4.1 0 0 0-8.2 0Zm-18.45 12.3a4.1 4.1 0 1 0 8.2 0 4.1 4.1 0 0 0-8.2 0Z" stroke="url(#a)" stroke-width="4" stroke-linejoin="round"/><path d="M2 34.8h9.225m8.2 0H43M2 10.2h9.225m8.2 0H43" stroke="url(#b)" stroke-width="4" stroke-linecap="round"/><path d="M2 2v41" stroke="url(#c)" stroke-width="4" stroke-linecap="round" stroke-linejoin="round"/><path d="M2 22.5h27.675m8.2 0H43" stroke="url(#d)" stroke-width="4" stroke-linecap="round"/><defs><linearGradient id="a" x1="11.225" y1="22.798" x2="37.875" y2="22.798" gradientUnits="userSpaceOnUse"><stop stop-color="#AD7DF8"/><stop offset="1" stop-color="#849DF8"/></linearGradient><linearGradient id="b" x1="2" y1="22.724" x2="43" y2="22.724" gradientUnits="userSpaceOnUse"><stop stop-color="#AD7DF8"/><stop offset="1" stop-color="#849DF8"/></linearGradient><linearGradient id="c" x1="2" y1="22.872" x2="3" y2="22.872" gradientUnits="userSpaceOnUse"><stop stop-color="#AD7DF8"/><stop offset="1" stop-color="#849DF8"/></linearGradient><linearGradient id="d" x1="2" y1="23.009" x2="43" y2="23.009" gradientUnits="userSpaceOnUse"><stop stop-color="#AD7DF8"/><stop offset="1" stop-color="#849DF8"/></linearGradient></defs></svg>