<svg width="17" height="17" fill="none" xmlns="http://www.w3.org/2000/svg"><g clip-path="url(#a)"><path d="M7.844 1.865c.227-.598 1.085-.598 1.312 0l1.466 4.062a.7.7 0 0 0 .656.448h3.603c.666 0 .957.829.433 1.235L12.75 9.917a.685.685 0 0 0-.228.773l.936 3.969c.228.637-.51 1.185-1.068.792l-3.483-2.21a.708.708 0 0 0-.814 0l-3.483 2.21c-.558.393-1.296-.155-1.068-.792l.936-3.969a.686.686 0 0 0-.228-.773L1.686 7.61c-.524-.406-.233-1.235.432-1.235H5.72a.7.7 0 0 0 .656-.448l1.466-4.062h.001Z" stroke="url(#b)" stroke-width="1.5" stroke-linecap="round" stroke-linejoin="round"/></g><defs><linearGradient id="b" x1="1.416" y1="8.629" x2="15.584" y2="8.629" gradientUnits="userSpaceOnUse"><stop stop-color="#AD7DF8"/><stop offset="1" stop-color="#849DF8"/></linearGradient><clipPath id="a"><path fill="#fff" d="M0 0h17v17H0z"/></clipPath></defs></svg>