<svg width="20" height="20" fill="none" xmlns="http://www.w3.org/2000/svg"><path fill-rule="evenodd" clip-rule="evenodd" d="M3.923 12.867a5.807 5.807 0 0 0 3.331 1.055 5.834 5.834 0 1 0 5.492-7.844 5.833 5.833 0 1 0-8.823 6.789ZM4.88 11.5c.599.42 1.298.675 2.027.738a5.808 5.808 0 0 1 1.046-3.673 5.808 5.808 0 0 1 3.095-2.24 4.166 4.166 0 1 0-6.167 5.176V11.5Zm10.242-3.002a4.148 4.148 0 0 0-2.027-.738 5.808 5.808 0 0 1-1.046 3.673 5.808 5.808 0 0 1-3.095 2.24 4.166 4.166 0 1 0 6.167-5.175Z" fill="url(#a)"/><defs><linearGradient id="a" x1="1.437" y1="10.141" x2="18.563" y2="10.141" gradientUnits="userSpaceOnUse"><stop stop-color="#AD7DF8"/><stop offset="1" stop-color="#849DF8"/></linearGradient></defs></svg>