<svg width="45" height="45" fill="none" xmlns="http://www.w3.org/2000/svg"><rect x="1" y="1" width="43" height="43" rx="21.5" stroke="url(#a)" stroke-width="2"/><path fill-rule="evenodd" clip-rule="evenodd" d="M14.592 11.733c.241-.25.53-.446.848-.571a2.303 2.303 0 0 1 1.968.128c.3.166.564.397.773.678l2.468 3.315c.453.608.612 1.4.433 2.147l-.752 3.149a1.02 1.02 0 0 0 .006.496c.043.162.125.31.239.428l3.378 3.532a.924.924 0 0 0 .41.25.894.894 0 0 0 .476.006l3.01-.786c.352-.092.72-.1 1.076-.021.356.078.69.24.978.474l3.17 2.579c1.14.927 1.245 2.688.224 3.753l-1.421 1.486c-1.018 1.064-2.539 1.531-3.956 1.01a25.497 25.497 0 0 1-9.639-6.354 26.98 26.98 0 0 1-6.077-10.076c-.498-1.481-.05-3.072.967-4.136l1.421-1.487Z" fill="url(#b)"/><defs><linearGradient id="a" x1="0" y1="22.909" x2="45" y2="22.909" gradientUnits="userSpaceOnUse"><stop stop-color="#AD7DF8"/><stop offset="1" stop-color="#849DF8"/></linearGradient><linearGradient id="b" x1="12" y1="22.709" x2="34" y2="22.709" gradientUnits="userSpaceOnUse"><stop stop-color="#AD7DF8"/><stop offset="1" stop-color="#849DF8"/></linearGradient></defs></svg>